<mxfile host="65bd71144e">
    <diagram id="V-kYW9GV2uXmBUqnUB78" name="PÃ¡gina-1">
        <mxGraphModel dx="2332" dy="-2287" grid="0" gridSize="10" guides="0" tooltips="1" connect="1" arrows="1" fold="1" page="0" pageScale="1" pageWidth="827" pageHeight="1169" math="0" shadow="0">
            <root>
                <mxCell id="0"/>
                <mxCell id="1" parent="0"/>
                <mxCell id="88" value="Property Binding funcionando con signal como switch" style="rounded=1;whiteSpace=wrap;html=1;fontSize=31;fillColor=none;strokeColor=#33FF33;strokeWidth=5;" parent="1" vertex="1">
                    <mxGeometry x="-728" y="3503" width="430" height="121" as="geometry"/>
                </mxCell>
                <mxCell id="98" style="edgeStyle=orthogonalEdgeStyle;html=1;entryX=0.5;entryY=0;entryDx=0;entryDy=0;strokeColor=#33FF33;strokeWidth=5;" parent="1" source="97" target="88" edge="1">
                    <mxGeometry relative="1" as="geometry"/>
                </mxCell>
                <mxCell id="97" value="" style="shape=image;verticalLabelPosition=bottom;labelBackgroundColor=default;verticalAlign=top;aspect=fixed;imageAspect=0;image=data:image/png,iVBORw0KGgoAAAANSUhEUgAAAjQAAADCCAYAAABe31guAAAAAXNSR0IArs4c6QAAAARnQU1BAACxjwv8YQUAAAAJcEhZcwAADsMAAA7DAcdvqGQAAABhaVRYdFNuaXBNZXRhZGF0YQAAAAAAeyJjbGlwUG9pbnRzIjpbeyJ4IjowLCJ5IjowfSx7IngiOjU2NCwieSI6MH0seyJ4Ijo1NjQsInkiOjE5NH0seyJ4IjowLCJ5IjoxOTR9XX2P5S4LAABafklEQVR4Xu29e2xVVfr///78/vEzKZQitZTbhxaQTmthaJGRm6hh6gcilkhBMzqKjULyI47R0fxCFOYPUUMm6Bg1TkIxR5xxjEKdUCEwVoIUykXk8qWVfkB6YUB6oUJbaObjX9/fetZa+5y1b+fGOe055XklG7r32WevvdfZ56z3fp5nPc9/zJw58/92d3eDYRiGYRgmXfl/9P8MwzAMwzBpCwsahmEYhmHSHhY0DMMwDMOkPSxoGIZhGIZJe1jQMAzDMAyT9rCgYRiGYRgm7WFBwzAMwzBM2sOChmEYhmGYtIcFDcMwDMMwaQ8LGoZhGIZh0h4WNAzDMAzDpD0saBiGYRiGSXtY0DAMwzAMk/awoGEYhmEYJu1hQcMwDMMwTNrDgoZhGIZhmLTnP2bOnPl/u7u79eogMvY13PXMLPTvWoy2E3qbJvOJ3SicBNz49k/4/p/79Nbkkfv6/8GqOZl6TdB7CFXLnkCHXk0HSja3YslkoOfwm3hvXZXemgTKPsHv185FT3U+/vqB3uZDIvt1wQMP4cWSTPSf3IXf7RuBt/4wH5PQh+N/34XX0+mDSgbT5uMfZcCOtw/iI71J4rd9SJGJdc8+hJmZ+l64g655AtB3Gn/e8j3q9F4Mwww92ELjy3nsXJiPDbSkmZiJjo14cm8rfv/6Kr2efDrW/Ur1p1h2NuuNCaEX1/rU/5dudTGTexf+Jgbw/pOn3aKl4TSO903A0mfvwgK9achz5Rr66X9xg7CYYZihTVoImr5PFuPohsUDYp0ZHFZh8RetWC8EhrXcrNA4uVoJh6RaZwaRuu5e+X9nt1QyjGQC3np8OjIuHMTv9nn1Sx9e33IQLZnT8WLFBL1tqNGHS9fofxa3DHOrkXxBkz0byyuXY3a2XmcckKXkFdyNQ6iyLEJi2Ybn8OQavQsTAT2I9V1Di9pwS7LggemYhIvYUX1Rb/HiIl6qFa9PnI+3pulNQ5mOPnSK//qvKgFsMeqe5aisXISpep1hmPQnuTE0BYtQOXcMcKMJNduO4Ce9WfEs8tZXYLRes+g0Ymis2BkL8zWJjruBR2zNbf+9HTN+DbR9uBydl/XGKFGxHl3YubAMJ/U2E/l6USOqll1E2d7HkKe3e8WrWLEsLpo/w4bVa3VbwHcbf4Xdtfo1G2S9EYKnW+3vwhHD4myvzRHb4opjceB1Dc732PYx2m+cYbQdIT5Gnmd2cmOTnq74LZbiIB6pz8TfyHKht7fUfoqXGvSKhYwvMawWF8T7TGEgXx8h4zIuzRPHnai3k4BwxqSQ28doz3MfgTy/4HHEoCvjgUKWFRknNLkNf97Sh6UyRkjh3E8xQcYRjfZ8zYmOM0G8cSWqLYh+3JGtYpkU0fSFI87Jiuv5+zX8Ru5HxziN8TIORrzu+Bys2CkL776IhqlYVDkPY3AdTV9ux5EUCCNkGObmSJqFRj4BkZj5sR4Bp5ghISLETIYQIuRKksuHx3BDv2xhuZq8XpNc3ofuHmDY1Adwm96keABZU8VPaMuemMVM1IyYi1V7F6N7o7aqVJ9H1pxXbFYVJS6MWByxD0GCwC5OMpF9p/7TRRU66Mc2ewJy1QYP+tD9g/rLcjVt2HgIomtchOJYPkObWJfnYp2fWOxiRrnClOAK7bMNj2KxGIRM8irEtUKILrmPOLbonxUDGJ/jy0QxYD6eh//5+6d45O1P8eeTfZhU9hDWGZ1Jg6QSK2qfR8Sg3ELvc7llMjHzcS2S5H673DEpegCHGGjVPmKhwdp2LBIE4jgjhaAI7nNa3DDiPJxtknvoD9NxzTq32ovIEPu5rCvTJsqg6P9pimZw70Nds9gvMw8L/G+qiEwq+y1evP20vk6PvqDrXAJstq5RLDsuUB/a+198mfCbJSPxNfW7eM9vnr0Xv2zeJT8rTJyIp/VeJABfLOkVgkcfT/fZ3x7wF+j+nMOeQA2abgxH4cOVWFSgNzMMk7YkRdBMfbAS5UXD0X4ogMBX5/TWEJkPzMKwnmM4f9MxMfvQc64fyCpC1li9iRj7ALKzgM6mLXpDcmirNqwqHxyXAiFrrDWIb0SxnGX0ecjK88Hn+K6XTvf+oDjpWLdbvo8Ewfq9tShRm220d5mDlCOY984cZKELHZ7WnZtkzaO4e0Sfy3rUsa7MbU3SFifFWjQ2268zKio3obq62nfZVKn3iwm7RaBu32kxaGbil4XWICgGYTlb6oAxO8pyy0x3DLzKIhCyGFjCYGTQeoI7RiLDKSw6vsfvbFYG7RoyrSNin81yAHe32VJrWDQaLki32uhs+yD+9FQhhPraUBeluauuqQ39oh9G3qE3xAPNHArXF9SPDgvQR/WnZbuh/ifE382hIOYM8Y3YHLS6jMB46g8hFH8zkfrCsADpPssomR4UPbHxE45sC6D+R2DM3Eosv2eU3s4wTDqSYEEzCrNXVGLeODLjBrDnrN5s41ncTlOwz+3Dz3rLzfDzP/egU/wEZk97QG8BbptWhGFoxlXH9O/Ech6N4aYpl00QQsOH7ouGm2Ut/rowH1WH6Qd8CpbooGDT0tNxuUv8rudgDK3o41piIXdsDm1NCiUzpgC9jTgZhVhqO+XhDouVwMuoqKjwXV4O6P1iwTXIqxlRGbePUKt+lg05O8Y94DuDkOv2kSXGGGT1+9xWCItMLJgsBnCPeB9vkXERDU73mItMjB8p/otlJo+OLXEKo1job74Yu7tKt2vH0f8e17GgME+6o5x9oYLDteiJk3NfBVBz5jqGF5Wj8kGOqmGYdCWxgqZgFgqH6b8HjC24KkaGkNtJuZtufFstfiYHkdoncJCsFHMeDVldpMXDe/B3uoKkxWbzRvXiD13oQQ5yy4SAua8YOHwIbZbAIXq70K7/TByrkEuB3DbxNfRYkE3CRrmS/vEHY7HFfcQAWWOk68Q85ny3BSGM+LgZkZFqSHee2a9GLFAsTLqd+mQCltqOJRYz7ikRjJvOExgYJk1JrKA5uweBAJlwlV96oEy4fU3Sv6HcTtLd1I/uhsGe4q0FgWF1WV8xxRWk60ZZbGSelsmLjVgVFWczJgc4v/8bdPdOQfEaWhc/9EkRHdHE7iSYpLicwqOe8MktFYrzMBdX8HBUXMRL1jHIdSUHYg9R48NQmYpuBfBSEHaoT0nsxU7LVeoTChg2j2UtN5dM0XKRXz9TI36/OECYYdKVpMTQhDfhNuPfFMibbZ/6I+Nq9N8xc6IabT3K7STdTT1n0JOsYOBoCcafhIJpaYmUTdcTMSiqAF+Ky6F4mSqcPNOHvBnKgtPTFU+WumYhioQOzPGagqWQsTsjilHiCABOGslwOTnJnYBfCg3Yck7Hfvi4lhJGw0Etaiy3iI41MYJdLfzcKpHR09ZHZkafMC83U84w9BVPNPuILCBxJ+GzXGunsSMuUWgnEa4lN5aLXNzrhwLYftQ+D5NhmPQiKYKG+OnodgQOtQPj5qFyxWzx02GhA3knLcJoHchLU6wLb+/3nskUFeqYw6ZWYMzUDHTW/zEh8Tk3hXQThZu9pCjZ/H9cM4ZoKvR80hnNu3XwrRIfeRWPIa/5uAwy7tjfiJ7Jj6nyBpfjSZ6nLTA2K5AdFbCcibvX2oOVc1+v9X1PapOJdUumI8McZDu+x9cXaMaOX8xLbJBVwjkDSQbsGoneVGDyBCw1ZzTl3oXVMjjZI8NvFHxEAi2GWUtKPPXh2hW9wYE6Z0HcM6G0yDLfTzPA4nQ5qSzH5MaL3tIVHpq2XY7CYeHi/RiGSSeSJmgk5IL6sgnXh43HnYZf+ud/LkdTSwbyntmNe9bvxozsPTj63h7xpGxCeWrU6/c8o6w3ox/S6+vfF0OTnZ8bzuBG1mSMzkp2MHCU1D6BbYf79Owlx/LFJ0E3zsnV7wP/r+N1ndclNGtIiw9BMP6m9hucp4dWMXBYU7atGVDWMSh4ONS+ewbVydVv4rteEizWPs4MxeT+on0Mt5lYVuBzn5w5KYic9mzFXDyEmdcO4hHnzJtqms4NdxxNHNYJChJumGo/jpqebeZnIZeUnhpu7ff4dHTWfhpnThWBnP3knD3kh7aeXDjt66qRAomIYeaUk4+qaSq3EUv0uDU1Ox4oyzFN+/aIo4kj6/Goe6ZjDNpRzy4mhhkypE5xyhQiUmK9aLCS0bliZnQiuizbNOdbjwFLrEdi4hYpSqhiVmBPXOeFkSTwZmJPGIZhUonkWmhuYWSwrtfU7mA8DMMkFivHzswl4SxLE/AWzQwKY51hGIZJR1jQJAmVDE/NRDIp2axKJSQkbwvD2LiIl/5+Gv2+xSep5MF8TLIlxGMYhhkasKDxxYgbMWJeooXyylCyPGcMjVUKIa7ZTmkOueFC/aA3MomF8uDILMfuWVSYNh0zMx0ZihmGYYYIHEPDMAzDMEzawxYahmEYhmHSHhY0DMMwDMOkPQkTNPn5+fjP//xPvcYwDMMwDDNwsIWGYRiGYZi0hwUNwzAMwzBpDwsahmEYhmHSnoRN26YYmvb2dvzv//6v3pLmyBIFOTh4E+UPBhNZWoAKVx5+E++ti6d4ZZToUg5Ue2po59ahpHQPYWZmnyoZcAeVD5ggq0l7llagQoyPq0KYN116wToWLmLH22ZNqCQgyyIYSfkuHMQjA5WEL0KfqdIOVMBzF363bwTekoUu9efBWY8HjJVvVaM8D+g/9g6e2nhAb00OVlsWrTsTVHU/GWTPxvKHC3HjEBc7HSzYQmNjFRZ/oatfU4mC3i60iz9lQrjNG+UeQwdVyNJejJKJmivXVDHVa31DK0ldgxAwb38qFiosqbelJL3U9fJ/q4o5M/TY+lIFKirE8u4JR/Hi1GPU5PEYfqMJx1jMDBosaGxUYffXXar69OaZYj0HZV+0YtUc4LttySxVQELKnlH4ZoXGydX52LAwP7nWmTgwswWrxV0FPDXpw6Vr9H+UA2hHHzrp/0QIHsr+K0VGkq0zg02EPqvrluXl0dmd0kpryGOJjGRbZ9KLqZhVNBzX//UDftJbmIEnzQTNVCyqrMSiAr2aDD4ok0Jgwykgb0QOuv9CwuBX2F2rX084ZCl5BXfjEKqoXb1sw3N40lEHKr1Rok2Kw42h69yw8DiK09H6pQff/qtqkGUGGi0w+66hRW3QqN+I5feM0usMc5OQK6lyOWZn63UvCiZhDK7jUnN8cmbqg5WoXDEbfNfeHOkTQ6P9k8PRjvrAHpzTmzH2Ndz1TBG6P1yOfz+wG4WT9PaeYzj13h/xs16NmjW1WF8xBWg+jzZ5A08RwobqL4ViacjKsKqoEVXLLqJsryo2SXjFq1ixLC6aP8OG1WvVseQg7yeaSAgIwdOt9nfhiGFxttfmiG1R7VElcG+8rsH5Hts+RvuNM4y2e4VAW/YELGNG5OsM4eoz3VdOnPt5xwuRYAx9RlQB3fwsBwUZK5KH//n7Llya91ssnai3O2NHgrEzmrDxOFaMj171iS15usJoT6DiUbwsHvp41/xjaJzH8o63maBjXSySH/My6p7lKBdPy/ixHoGvgr8UmnvxauAFlGa2oqbiZWzVWyX3vYqPny8FHLEhzjiOm4kduXftx3hhVvATFV/QGlS8ZDsLwUpsqi5Hvl4TLeLEu0/hjf1qzTqGO55EXxtO4J3KNxDtGcrjFZwV77mEpUa7zuuMLZ7FeQ3+/R3qDY99LPS+XX5tuo5l77MgsbRJFCxC5dwxwI0m1Gw74mN9GYXZK8pR2Ou8355F3voKYNditN+xHTN+bbXajKYNz4lvgoHf+MbERHpYaOimog+bbirPDzsDec8IMYNqHN2wWCzV6MyahRlPPKtfjxYhHn6ToywI27qQhS7ULstH1eEcLHFaEUbMxaq9i9FtWRuqzyNrzis2q4oacFUxSmsfggZe+wCdiew79Z8uqtBBejN7QpgCmX3o/kH9ZbmaNmw8hB61yQYVzVSWkc/QJtbluVjnJxa7IPC2qmzDoyrOyICKcC6BEB5yH3Fs0T8rgm6zVSgpEiNtbyNORhAzJHyKT4Xaktcx+TFXDJOrb8VyMOc5+3mR2BJiJsu4xp3NVHQ0FdxcmZj5+G/xm6u7dMzKQbQ4q2QHXU2fYscFvc0LEj5/EOIDQvDo/R95WwxE8+7CAr2LEhZCgIw09vn7adGRD+EfnpW5w0MButPOWW2pY/VPnO84lhYzJHSs/d4+jZFLzPNKPD8d3Y7AoXZg3DyPp94DeKOuVfyfj2mVaovFvXMKxC9JP84etgZxGpTFIH67EAgUx6FjOTDrBVS/tVLvEz1KiEAMtPpYYnnnykJsMs+jchOqhRDIEWIiuM8xoPT56uB+BzbuFcOwuIJixznctwAF4mvWf7YuajETJLMUL1QvxDXr3Ha2IkNcp3luUcez6GvIJ7Gmr6GiogHTjD6jvqjWAsXap6YtH+XVH+PV+/ROUSM+p6fFL2WwLTpWhugzx7EMwWrtV/HuNSz0+SxJGEsxQ8LYV8wIxI/3+GFA+wVvGTL6od2YMfUMTsmx6U9o65mMwt+/htv065LuI9geqBdyZgzmRbIGMb6kvKCxbqrrZ2rC31QtQsx8skWvbEH7t+IrN2mGGDZioQq7lxkWhBE54vbSIsDDQtBWbez7wXEpELLGWoP4RhRPJsHwecga8MHn+K5X7FN0f1CcdKzbLd+nqnJ7D7TtXaaWdwTz3pkjhVdHBKEQF2sexd0j+lxWlY51ZW4ri82KshaNzcZ1lt2PKSNEX5z5Jmix8YP62jZbqvYJHBTHwuSZRt+sQi594ZuP2ywtJ1fbz7NkxVxk9R7CNkOknVxNQm4K5lv9J398q30X22CTaMRAH7KOXEQDiZaRmTEP9k/P85oZ1IfXq0PrCx6Yjkk0S8rcRwimzSdF+xOnY12M5eTr9u3CSw16hRDH+prO36zynZuJ0eK/lnOm1eYiXvK1MiWQs3sQ+LIJ14cVorxyEabqzZJAg4cguBcLCsQTdNtewxKyUMge8QRvWjv2v4GqY+K3JW9hzAPvpDvE8fvOos6wGhzY+JRhcbgXry7Il1Yb0zJyYGMVToiPKX/Bq2IPYisa5I/GNDGUh1CCrBV747Qete40LBq6j3JGqxajJ3QNdsvTVrwcXF+JpbOEdBTCwrS2bH2pRrQphEi5t8DwRxzbYZHaWkOiKwMFc4zznzTSIVgF4vN8ymUhUy4gsvK1Hwp4WPnsRAwGtnkL9qGzXv44irFCbjA4hz2BGjTdGI7Ch5McWjFESWlBY95U24+G9012NlliRvHzFRo6c/EL100TJWIgfS+sa+I8GsNNUy6bIISGD90XjYF9Lf66kKxANLCR9UAFy5qWno7LXUFxZR3XEgu5Y3Noa1IomTElKqsK0XbKLfgShV3QEdpq5WG5CaEFpUtENYNiS7NytK8q8HLoac1j8Tep3zz2gT5eJmDaRPFU3nwxjEgQImmykPaueBMhTJraxE98JkbeoTfcBC1XHZ+TjjOaVPZbvDVNbRpQfJ96PQSBtm60NlqDmxY4Hn124PBZOViODPnRoqLlihBCZAkJWMLEgWVhueJqEXVn6b0jg667rY1OK5MlyBr83SdhaUVDIu51Vz96UDlNuqK6Op3CS38ut4/37p9Y2H9JPOY5aKGZiR6WGxvkPqrEvHHX0fRlNNOvIwcD3zi3zx760HEVN8R5/MLzIeInHNkWQP2PwJi5HAsWK6kraLJnY/o4/Xc6oi0LWXMeDVkWpMXDe/B3uoKkxcYarH/oQg9ykFsmBMx9xcDhQ2izBA6hp5cnFm0FsYmvgUBZoMyZUF4xP+RakyKQRI3ezzYzzBJ+c16xHWs9BWCLz2DIoK0gUc38CTPjanS2u4/Do1xY/zAWyhFj5yJe0tO/SdSo/R6K2RqUGMRTb2nITqOe4EOCQFo3+k5gh3NQv3rJ130Tq/WCrDHkylHuHW0F9HB3uAd6ixyMtwbiwA5ltbGsTFJI9ONETXxyJmFoK8g1pyZzEWYfQ7hFi3RhGZZV6fLSrwUha0yFtgI9b+23yWblQsEsFA7Tf0eDDAZux+kID9zxMrxolt26yIQldQWNfLoKoObMdalUKx9Mt49VCwLD6kLBxs4gXTfKYrNTulkWGzEhKs5mTA5wfv836O6dguI1tC4GkaSIjmhid6KEcvqI/0xXmzc6gJcCinXMCy3KeuUmJALfVK48IV6Coka36YwRCi6We2wwXU6JQFtBYhckdmKbCq1jY8jNFYyN+RR/JveViz68vkXvQ3E2MnZogESNnJ0yTw449eK3xOY62F+Hs0FBoKwbscae+AuPMBgWwRr55FIeQzxOFy4F3VXaaqOtTEqQ2d1Zg4K2gsRqvbLhYRULhxkkHbKuknDxYitetvYhcSlkT7kpashVKe6V+h+V2ye8hWQUZk+nGJuWBAbxWhYiKHcXBwjHRMrH0IQP8PMns1D6G9BzWW8YaILxJ/aBNK5sunpwVm4UipepwskzfciboSw4PV2kfmLF4XrxQLp6RhSjxBEAHDsqpibisdbMlLOR2r4OzY6KDop90qImeD2Rr08yiC6nxKASzGVMnhAm9qYPdc1iJzO+RbOgME8MPxfRYMbDRGLaRPkE3XI0xlgYCnLWoiYRLq6wRJxIoIODSRBo64YttsIhGEysWJWbddFQkK0UNZaLxSayTLzdSSo4mKxM8QmypKBdPe5rMJDxOY74FslKTBM/ALFdh+Ua9LCuRYK++1LUGJYvzbmv1MP08KJy/4fpCMHAftw2rQjDxO/T1RN6QxBKOVCOwmHRursYJykvaCThAvy8KH1fTt/urI9j2naikG6icLOXFCWbdWZik7JPMJ/G4ebdOshVDc55FY8hTwfCduxvlLN/aNpyz2XnVOVosOJQTCuQHRWwnIm719qDlXNfr/V9jx8qGJeO5bzejXjS5loT16mFGkGzmdwuJ/GeLz6xW3uswOOguKMkieelS2poZ0Puw+tHLwoF75ghJfp6XUVoNlHdvtPiqXcClpr75N6F1bKUwOnYEvbpLMmTpoaORVO4XS6nafPxtwfs25SA6sO1K3pDEoh6doocWMUTOk3jNYKBLSzBUG5aUO57FatkQOuOGGNVaEq1w72hB/CQW8sSWeU2y+C9a1eh1NOdpGJO8peoaejxBgMnlq3YIYOmy/HxWlOwrMSmYD+qfTJmrbLFsqx8i9xEsV7HAVy6Kv7LLMAC61g0m8nD5USWHKfFdWWxjOYxLF8hIj1MTy1VgjmmzMBjX8OUX2fgxrfV4ltgYLMmbseRm8+kckuSZrWcSMHOA8xaGTIPzSyheE360fbhcnQmyTqjcqp0OfKZKHcJTRG2pj775nyx5WjReWYccR1O15SVcyW03XqfOQtJu2zoTxde+VfcbbtzuUTYx6eWkzzfbHsuGsK6jhCO87LyAGmoLUoy6Opv3a4ZeO3pzvPYj0RANPlwkobOL9NZ+6ltppDM60LTqvUsIKt2kReu/DHOnDXiGt35XrSrSK8RLV7nYOaWMbDt66j5ROezWQzaL5b02upNua8h2fWo1G/EsDM1EScSEFZuFf+cKs58KuH2jYT7WJ45bcgNusTWon+uFGtfz3w20aFcNl2ONtS50vRxdX7ucw/hcX5RXIPlKgrS58yfE22bVm4huSKg1xowzXb+CmcuHXebHsgcMeNx6UtTaERzn6k8NBTjZtK5azHaHNYZmgAzb0S4XDdMNKR/cUotaPo9bpLBxBIzrkHWGmB9ksUxDDNwqAEujGBIdbRwiF9kMXEhE+4hQhI8JWgyvv0Tvv/nPr2NSSbp4XJKQ2SwrtfU7mA8DMMwg4uO2YjZfZQ6SJdJPPEjzE2QjGBgJhGwoEkSKneKmolkUrJZuYSSmbeFYZhIkJuiHPlCDFSlROxJ7JDLpjyvHyc+ir7MAZMIVK6YSAn3mIGHBU2SoCnFNN1YZQAOLVa6flesB8MwAwDFZdCU/NhrHqUK5CajlAKqjIJHvSKGuUVJ/xgahmEYhmFuedhCwzAMwzBM2sOChmEYhmGYtIcFDcMwDMMwaQ8LGoZhGIZh0h4WNAzDMAzDpD08y8kPmdE3Bwdd5QLSA6vEgLuUQYLxKX0w9MjEumcfwsxMXVLgDp36nypO61IFNqxSBH6vm1hlBKLZ1wNnuQJnOQM71nVE2i+RWCUX/Moe2F9vscolXDiIR6ov6n2Ym8YqRxBNun8PnGUDwmcnDpUjSOksxjLj7zA02coaMOkKW2hsUN0iXTyRMvr2dqFd/EllDNZbBRSHDFT3qXWIF25MIrpAI5W6jlWAJJqPqj/FI2+LRVayTn/qqBKroP+q+p9JDag6uKxC/+6JIXGfEVMnUsbf0yxmhggsaGxQheYu3L22VQiYmWI9B2VfULVn4LttyczsS0LKnoDvZoXGydX52LAwP7nWmTiQ4tC4zvV77ZW8U5c+XLpG//fikq3gow8dfeik/6MRPA0HlSCJwzoTO314fYsSQANjnSF6qRtE09fQojY4iPQ6kxACLytBMiDJBA/gjUolgFLWOpM9G9PHAe0XOOPvUCHNBA1VOK3EogK9mgw+KJNCYMMpIG9EDrr/QsIgmZWZyVLyCu7GIVRRu3qhCtNPOsompDdKtElxuDF0nRsWHkdxOlq/tGBhK0IS0Navzm6jmriAKhJXrpiNUXqdYfwYdc/yiPfKqMnjMRztaDmrN8SEGouW38N3YyqRPjE0soR7obwBbRVOZbXtInR/uBz/fmA3Cifp7T3HcOq9P+JnvRo1a2qxvmIK0Hwebdm0YYoQNlSuIBRLIytpFzWiatlFlO1VtZkIr3gVK5bFha62rapy0yDvJ5pICAjB0+1TndsRw+Jsz1nt26oC7ofXNTjfY9vHaL9xhtF2rxBoy56AZcyIfJ0hXH3mU5ncuZ93vBAJxtBnRAVDzc9yULDia/RqEEfMyAIZS9LriDtR8SajT+7C7/bZB3zruJ2esTGh2BmFjgXysjZZMT1BnLEv6hwg2tmRreNdJH4xMgnC7zfAQseI9B97B0856jN5VdWmWkgvzDI+hbYaVLwUZ5nK+17Fx8+XGp+pdwXvsG3GeP4RcZ2TxnGd6py6HMemEhHlyPE4F+u4XZ6xMaHYGUW/f3kGK6YniPP61DlAtLNjtNlv4fuBhO+8ccD1MzXYfvQnvdUJCZJ5GObcJ4bxhERTedFw4Md6ruuUIqSHhYYCt+iH7EYTajzLtWcg7xlx86EaRzcsFks1OrNmYcYTz+rXo0WIh9/kKAvCti5koQu1y/JRdTgHS5xWhBFzsWrvYnRb1obq88ia84rNqqIGXFW7ydqHoIHXPkBnIvtO/aeLKnSQ3syegFy1wYM+dP+g/rJcTRs2HvKs6k01ppRl5DO0iXV5Ltb5icUuCLytKtvwqIozMqCaVUsghIfcRxxb9M+KoNtsFUqKxC9cbyNORhAzJHyKT4Xaktcx+TFXDJOrb8VyMOc5+3mR2BJiJsu4xp3NU7BksN1cHd/jd+RiCi67cNyhTRJPyNX0SG2YQFsSRVMvOM5tApYKAfO03sViUtlv8eLtp+37PXsXFujXE073EWwP1As5MwbzKpdjtnzgMAjswAnRjxkFC8SwaqKqaqOtQQ+CNOhSLSQaxHVcSEUNWvPKUR141fHeKNADPMTgr44llnevYeFbK/UORBRtRn3+UbL/DTwVbIuWd+Txk0vI1VSxs1Vv84D6rLjBcW75KK/eJK7WTv4S0W937LXv5/k5jcLsFUrMtB8KhBEzgoJJ4i66jkvNXvtEN578dHQ7AofagXHz2HKYIqS8oJGmw7ni1hNKOrDtCHxv0RZx832yRa9sQfu3/eIXd4aQCrFQhd3LDAvCiBxx02sR4GEhaKs29v3guBQIWWOtQXwjiieTYPg8ZA344HN81yv2Kbo/KE461u2W71NFLL0HWlW528IRzHtnjhReHRGEQlyseRR3j+hzWVU61pW5rSw2K8paNDYb11l2P6aMEH1x5pugxcYP6mvbbKnaJ3BQHAuTZxp9swq5NJg1H7dZWk6utp9nyYq5yOo9hG2GSDu5moTcFMy3+o+eEmWxQu9lU6Xa7ZaBxJZtZpEQQkdpfQKmTVNbgtCsrOC+fahrFvdp5khYD7XJ4Rz2BGrQdGM4Ch92up8PoO6s+N5nFmDBfXoTUTkN+WQpqNFyoHIpSjPJcmA+5W/FyzQAZ5Ziaayf+aSRYgjsx9nDhiWDxIRp7YmqzSjPfyjg7B8SQnUkgPIxzdn/NCsruK/VR877jCwu5SgcRta7APZEcCNFDAaOdjw5uweBL5twfVghyisXibNgBpOUFjRkOiSTXkS1Lehssm4+xc9XaOjMxS/GqvWYEQPpe2FdE+fRGG6actkEITR86L5oDOxr8deFZAUi0ULWAxUsa1p6Oi53BcWVdVxLLOSOzaGtSaFkxpSorCpE2ym34EsUdkFHaKuVh+UmhBaULhHVDJpEk5WjfVVWoKTPkrIBjQOJNaPLQX/zxUGa4fUTjmwLoP5HYMxcexzDgcNnxblmoGBO6Pl9ZTFNVT6LOu32kOviIeCS0w0SaAANqTmjY7TRtFD/ZKD0+Y/xqilEDKJtM5rzH7LIfnTTf7ZOyJgwkCuych7G+FrwHUQRDBzTeBLJcsgMGKkraPRNl7Zoy0LWnEdDlgVp8fAe/J2uIGmxsQbrH7rQgxzklomv1H3FwOFDaLMEDqGnlycWbQWxia+BQFmgzJlQXjE/5FqTIpBEjd7PNjPMEn5zXrEdaz0FYIvPgPGH8tr84w/G4hXvk0IML5oVejIWT/57xRco5LZR7prWOsfMnjAzqjLuiNHGJF07NUKYkKixrHtu10lUbUZ7/kMAiguyWUS94n2iYGopxVVFjwwGFuLnWFzBwJEYjsJSttMMFqkraKTqDaDmzHX5FFb5YLrdJFoQGFYXCjZ2Bum6URabndLNstiICVFxNmNygPP7v0F37xQUr6F1MdgnRXREE7sTJZTTR/xnutq80QG8FFCsY15oUdYrNyER+KZy5QnxEhQ1uk1njFBwsdxj7HKyoZL0UcCwFUMjlpTLb2OPlQg4nsq3NpIbR7ttpLumFQ0xWNr6r8QzeXwrXrYsezJ2xDsexA+zzZs9/3RABTmTC86wiMaZ3+bcV3QP1KNdun0iWUimYlbRcFz/1w/+4QuxYlmIZLC6OBcOEB40Uj6GJt7Aq8xC6W9Az2W9YaAJxp/YB9K4sunqwVm5UShepgonz/Qhb4ay4PR0kfqJFYfrxQPp6hlRjBJHAHDsqJiaiMdaM1PORmr7OjQ7Kjoo9kmLmuD1RL4+Sbq5nKZNTGKMygQ6PHDhtPfsp5TAipW4jqYvfWIlZHCtcttId40jmNYmGEx0rIotFiYe6J6SoiYH43UbMbUZ4fwHBHleycIKct7rPfspLsLFVhmEDQb2x3c8iThhhRlIUl7QSGINvCp9X06366yPY9p2opBuonCzlxQlm3VmYpOyTzCfxuHm3TrIVQ3OeRWPIU8Hwnbsb5Szf2jacs9l51TlaLDiUEwrkB0VsJyJu9fag5VzX6/1fY8fKhiXjuW83o140uZaE9ephRpBs5ncLifxni8+sVt7rMDjoLijJInnpUsqXbMhq4y5RjCuazp1otEJ7iZODM1oojZTxeVkexIOl6peBY5mzHpBWQGcwbRaMJQ+bc6UWYlNNIU4jkGWpj07LXmumJmY2oxw/gnmQGeX+NcIxnVNp040Leo+y5sWsmBRm3G6nEL4x1YpRmH29DgyA/uMJ9aEFTltO9yEFWbASLNaTip3AA4ZT2Yyb8AsDNOrin60fbgcnUmyzqicKl2OfCbKXUJThK2pz745X2w5WnSeGUdch9M1ZeVcCW233mfOQtIuG/rThVf+FXfb7lwuEfbxqeUkzzfbnouGsK4jhOO8rDxAGmqLkgy6+lu3awZee7rzPPYD3DO3BhedI+aau3aRykVj3UOU5+U0xot9f9ls5aGx6iB5YeSF8ct9Q9hqSDmOR6/tBFbb8tt458LxzpuTOGR+kRHiSTiawcPKweJbt8iZL0X8anjlXIkSZ50j73pJMbQZ8fzjQbd/1Z1vx54fh/K87MB4sW/BWev8VE4Yb5lj5IWxzltud2C7Fsfx6DVx06wS7w3lt1H7OHPheOfNsSNzxPzXJfu9QoL44ULcMMcPJ1GPJz55bJhBJf2LU+obsH/XYrSd0NtSAEvMuAZZa4D1SRbH3Ir4CxomTozcMPGKlEElKefvL2huBTxFjpMUHU+Y6EgPl1MaIoN1vaZ2B+NhGEaTOwG/FLcLl1FIHPfOKUAGWrE3HcWMICnnf98CFNB9FlfQc7qThGBgJuVgQZMkVO4UNRPJpGSzcgklM28Lk9oseGA+1hkBQE/PI1fQRXztLGXAxEflJuk+ad3p75JIaRJ0/veu3WTLi7OynFxB6Svybg4KGo6cz4xJb9jllES8Y2hSoJYQM8g46yoluQbSLYIZB9LqWWcotUn8+TtjdmKsBXUrwi6ntCb9BQ3DMAzDMLc87HJiGIZhGCbtYUHDMAzDMEzaw4KGYRiGYZi0hwUNwzAMwzBpDwsahmEYhmHSHhY0DMMwDMOkPSxo/KASBXvtRRnTCaqZtH5va/ILM8p+asWTjgSCQw/KHfNb/OMPD6mkeFS08Q9i/dm7sEDtYIdqJ4V7fRB5uoKu47d4yyp6aYPqNNHr82WBSqrPJK+zIplFMZmUQxYCDVO1mmFSEBY0NqgQo64GTSUKervQLv6kBHnrrYrQQwYqZDkAgmeocuUa+un/a326qOPQRFX85rIMtxqjJo/H8BtNOOZXxJFhUhAWNDaqsPvrLty9tlUImJliPQdlX7Ri1Rzgu23JLFVAQkpZVKzlZoXGydX52LAw31E5e/CR4tC4zvVpYwXrw6Vr9H8vLpnlw/3o6EMn/Z+CgqflKpVY6MO1K2rdTi+dsnj5Gm7Fij8MwXWPmPQkzQQNlWxPshn0gzIpBDacAvJG5KD7LyQMfoXdtfr1hEOWkldwNw6hitrVyzY8N8TcOEq0SXG4MXSdGxYeR3E6Wr+0YBnylgttierstteZosrFlZWLxDeSSSukK2k5ZmfrdS8KJmEMruNSc3xyZuqDlahcMRuj9DrDDBTpU/qAvogPF2I42lEf2INzerOqvVGE7g+X498P7EbhJL295xhOvfdH/KxXo2ZNLdZXTAGaz6NNfumnCGFjr78kazQVNaJq2UWU7VXFJomew2+6LCIUy7Jksl4xaf4MG1av1fWeaJD3E00kBITg6Vb7u6AYlrVz0VOdj79+4G6vTW+38K4vFcLrGpzvse1jtN84w2i7Vwi0ZU/AMmZEvs4Qrj7TfeXEuZ/XuSvBGPqMUqeWlrOekxBHJ3fhd0aBSopfeXFyG/68pQ9L/zAf1q3t3I+guJilE/UKceEgHqm+qFeSAT1czJMDX9OX23HE+RNSuQnVS/LRf+wdPOUohrjyrWqU5znqCt33Kj5+noonWtxM3aGV2FRdjny9JnoMJ959Cm/s16sas3aSpK0GFS9ZLepj9J3AO5VvwHYF+triqbekrl2vELY29TkVnBVtXsJS4xq8+tE6jxAR+qxgESrnjgFuNKFm2xEf68sozF5RjsLeegS+Cv7KCp5F3voKYNditN+xHTN+bfVbM5o2PAfb3ej3W80wSSY9LDT0RaQvCH0RPb8gGch7RogZVOPohsViqUZn1izMeOJZ/Xq0CPHwmxxlQdjWhSx0oXZZPqoO52CJ04owYi5W7V2MbsvaUH0eWXNesVlV1IBLA2hoH4IGXvsAnYnsO/WfLqrQQYNF9gQYBZod9KH7B/WX5WrasPEQetQmGx3rfqUtI5+hTazLc7HOTyx2QeBtVdmGR1WckUFehbhWCOEh9xHHFv2zIug2W4WSIjFy9zbiZAQxQ8Kn+FSoLXkdkx9zxTC5+lYsB3Oes5+XDFh+DFnGNe5snoIlKeDmerriXmDnp3jkbb3UXkRGyUP42wMOsZk5HS/+YTqu/d2+nxnQS8Jn2jnjWH8/jf6J85McyEvVi2vQdGM4Ch/2sJoGduCEGOUyChZAXKnBSkyT5eYbggMvDeLVQsx0CYFQUaGWmrZ8lFd/bKsWHR1aiJBQ0MeqqNiLkU+/apwHFW2sFmKmSwgAa58atOaVozpg7bcVO471i/4vwALHOawsJhHRioYYxQxd57RGqz2xvHsC/dTmWyv1HprMUrxQvRDX3tX77WxFxqwXsKlSv06QACxuCB2r4h3R39Rnm0QPuJEWNRIzPwqh4itmBOKHaPwwoP2CtwwZ/dBuzJh6Bqfk7+yf0NYzGYW/fw236dcl3UewPVAv5MwYzItkDWKYBJLygsb6Il4/UxP+i9gixMwnW/TKFrR/K36MJs0QUiEWqrB7mWFBGJEjvpJaBHhYCNqqjX0/OC4FQtZYaxDfiOLJJBg+D1kDPvgc3/WKfYruD4qTjnW75ftIEPjFk7R3mc8/jmDeO3Ok8OqIIBTiYs2juHtEn8uq0rGuzG1lsVlR1qKx2bjOsvsxZYToizPfBC02flBfmxYl1D6Bg+JYmDzT6JtVyKUfyebjNkvLydX28yxZMRdZvYewzRBpJ1eTkJuC+Vb/0VNudbXvYhtEEshH1bvwutkZDadxnATA5AmuWVEttca+DRdkbMvo7NCdXbdvF15q0CtEx/f4+oL4f+JEOVMpefyEI9sCqP8RGDO3EsvvMZ0MB1B31kMQVE5DPllMakKWkKWzMqQFwrR2bH1JCAzxoFJa7jU8h+G+8cgR/7U2mnaKrXjZtLJULkVpJlltTGuG2EcIBxITS/VnfuDwWXGmGSiYY0oyJcj6j+0w3hsdBzY+Zbfo7H8De+WXf5pLhLTuNCxKgQbRF0DOaOM8xHufMiw71N9v1NFe+ZjmuGfJBVReNBzthwIOq4ubiMHANsv3PnTWyy+6+N2TGwwiCF6GSQIpLWjML+L2o+H9uZ1NlphR/HyFRoBc/ML1RYsSMZC+F9Y1cR6N5sDrpGyCEBo+dF80Bva1+OtCsgKRaCHrgQqWNS09HZe7guLKOq4lFnLH0s93ciiZMSUqqwrRdsot+BKFXdAR2mrlYbkJoQWlS0Q1gybuZOVoX1XgZeMp173E6lKIHyvo2MlFNJhiJUpU4O/AcO6rAGrOXMfwonJUPhiKqvESBNK60XcWddZgLQUO0NXpcKcIudBAg/3t4x0WngjsvyTkvRjWl/iLUWVh6cIlhwvKJRz21+EsiUzTyqQF2dnDzvONj5Yrcq6cg9itP5IWPfMuCLmPKjFvHLkFA9gTccZS5GDgG+f22d34HVdxQ3zGv/A0H4cTvAyTeFJX0GTPxvRx+u90RFsWsuY8GrIsSIuH9+DvdAVJi401WP/QhR7x3JlbJgTMfcXA4UNoswQOoaeXJxZtBbGJr4FAWaDMmVBeMT/kWpMikESN3s82M8wSfnNesR1rPQVgi89g0LHy1BiLLQYmJqzcMaHlxZLYbJMJY9z0kItBWyBCgkBZN1rrHDEpYhi+5jelKnNkMHYoOrbiZel+UaJGWdo8XFdhZnFl3GG1qK0ehpVJiqG2va54nOggd5jdAmiL4YkRiscxj0VuO9vRCmahcJj+OxpkMHA7Tkd4eIyX4UWzOIicSSqpK2ikH1Y9+ZG6N5/80gMtCAyrCwUbO4N03SiLzU7pZllsxISoOJsxOcD5/d+gu3cKitfQuhi4kiI6oondiRLK6SP+M11t3ugAXgoo1jEvtCjrlZuQCHxTufKEeAmKGt2mM0YouFjuscFwOZGYeXw6Mihw14p7EcsOchPFDImZ+ZjUdxp/No7155MDZ6GxLKnSLRywBwhvbTQEgbRuxGh9iGv6uBAildrKRnEq5Lp6Pvp4nP4rRovSamNZmbQgs7mzosUIMjYsgO9QnE4cqOBicpuFjqWu1eDsHvF5kIVEuX3CW0hGYfZ0irFpSWAQr2UhgnJ3cYAwk2RSPobmp6PbETjULp785sU0FTCzUPob0HNZbxhogvEn9oE0vJjxQQ/Oyo1C8TJVOHmmD3kzlAWnp4vUT6w4XC8eSFfPiGKUOAKAY0fF1EQ81pqZcjZS29eh2VHRQbFPWtQEryfy9UkGweW0oDBPDJF9OF6fgFlI0yZKC0bL0e8HId+NfcDydAvL4GAlCJR1IxQMLLEJBhMdq3K2zmHNiRGKNdGiZqQ2vNhElomnO0kFB0srUzyCzEK71tzWqXiwAqujsxT5uQRtRAgG9uO2aUUYJr5rV0/oDUFoFlw5CodF6+5imJsn5QWNhJ40vmzC9WGFKI8m90Xp+3L6dmd9HNO2E4V0E4WbvaQo2awzE5uUfYL5NA4379ZBrmpwzqt4DHk6ELZjf6Oc/UPTlnsuO6cqR4MVh2JageyogOVM3L3WHqyc+3qt73v8UMG4dCzn9W7EkzbXmrhOLdQIms3kdjmJ93zxid3aYwUeB8UdJUk8L11SqZYNWWXfzcQvC63rUmUV4nI56Twxk6aGZjTRFO7ku5yiHbBUcDDN0pEWhWAwsIUWDLNW2SwoK9+iKcut2OucqhyJyk34eK1dHN07p0DIGcOtpUVWqW3m00psoinQHiJBxgLRzCM5DT32YGCJjm/JLw6F/5KVJT6XU4tKfmgGE5Ol0elyMoj0YDi1VM0ijSkz8NjXMOXXGbjxbbV72rac0k/Ttj2m9DNMkkifPDQSlfsC4mkw+AMq89DMEk8JJv1o+3A5OpNknVE5Vboc+UyUu4SmCFtTn31zvthytOg8M464Dqdrysq5Etpuvc+chaRdNvSnC6/8K+623blcIuzjyINjIc83256LhrCuI4TjvKw8QBpqi5IMuvpbt2sGXnu68zz2owDcaPLhJBOZY8YQHS21n6JhqhA1I0/jz1uUtUXt04sdbx/ER2o3gXIxjTZz0VBdqbKQoKE8NZvFUO1+b+Kg2YflRTeiyzNi5ZjxyumiceWECbNvJFzHEsLInZ+Fpm6/gFLj6+mZ60Vi7eudzyZqSHQYeWOovSrx/VLTx9X5qXMPrSuUuyrHdn7ahaXXZH+JD3qVnv7ua1mUOWLG45Itd5D6XR12pibM5AuVh2a0XrPo3LUYbQ7rDLkg540Il+uGYZJDmgkaD7Sg6ff4Yg0mlphxDbLWAOuTLI5hhhxa0MBXMKQ6WtAgfpGV0siEe4ggTpWgyfj2T/j+n/v0NoZJLdLD5ZSGyGBdr6ndwXgYhrk1UC6fONxHqcJ9C1Agvs6JiX9JNZIRDMwwgwMLmiShcqeomUgmJZuVSyiZeVsYJmWo3CTdP607w6TkT2lWYhO5y9pqBjAn0UCicsVESrjHMOkAC5okQVOKabqxygAcWqx0/a5YD4YZQshyBjT1Pc6aR4MOucnk1H1dRsGWlZdhmFQk/WNoGIZhGIa55WELDcMwDMMwaQ8LGoZhGIZh0h4WNAzDMAzDpD0saBiGYRiGSXtY0DAMwzAMk/awoGEYhmEYJu3hadt+yBIFOTjoqn+UHlg1k9y1mRKMTy2noQcVkHwIMzP7cPzvu/D6Hbp+Ul+o9pKN3Lvwt8enI8Pv9QRCxSjNwpZUF+qlBr2SClh9gYtJqy3lRtW8muTXplX/6sJBPFLdqz/bFOy7Wxwq4FluFKdLuZxGVp0yz3phqcOtUl+LLTQ2qBCjrgZNJQp6u9Au/qS6TOutitBDBipk2ZpylajTBl3lmsoeJ1OsRMNH1Z/ikbfF8vfT6pwGCCqe+Q8hGp7W6+lLHy5dU/9fuyI3MCnC1pcqUFEhlndPDOi9TUKqOmBWY09npmLSOKD99NAvFsqCxkYVdn/dhbvXtgoBM1Os56Dsi1asmgN8ty2ZpQpISNkzCt+s0Di5Oh8bFuYn1zoTB1IcGte5fm8tSvRrqY016PXiklk+3I+OPnTS/ykgeAadju/xOxJcA2adIXqp68XHdg0taoMdLUj7r/aqdYaJh/1v4CkSXClsnRl1z3SMEY/mLWf1hiFMmgkaKnNfiUUFejUZfFAmhcCGU0DeiBx0/4WEwa+wu1a/nnDIUvIK7sYhVFG7etmG5/Ckow5UeqNEmxSHG0PXuWHhcRSno/VLCxYeEIcGLVdJ/bjFKpnqK1fMxii9zjCphLw/H5yq17wYhTv/a3j8xUezZ2N5ssfcBJI+MTTUsQ8XYrhQmrYy92Nfw13PFKH7w+X49wO7UThJb+85hlPv/RE/69WoWVOL9RVTgObzaMumDVOEsKH6S6FYGrIyrCpqRNWyiyjbq4pNEl7xKlYsi4vmz7Bh9Vp1LDnI+4kmEgJC8HSr/V04Ylic7bU5YltUe1QJ3Buva3C+x7aP0X7jDKPtXiHQlj0Ba3yIfJ0hXH2m+8qJcz/veCESjKHPiCqgm5/lwKNjceARW6NjTXByF363jwbY0LYMtSbQMTxeViK9b2eYOBByE71YEvos+822BDIeBwfxSH2mrd1QbIkVm+KHEbPiPHefeKLIbVpYcUx6VeA8/4Tj97ujoZpVqvimM7bjXrwaeAGlOIF3KkNVuq39g9xMnahg/IaFdxyHMw6l/9g7eMqqfF65Sdbbsm3TqPfFEhvifc0Sfa7waDtEmLb0+7t8Y2h028F7ox8n3n0Kb+zXqwJ5PRD9XTPe1m/Bz87Vnw76jOty7mu+FmQlNlWXA+L4O0abn7vXdTrP3/E5uRiF2SvKUTgMaD8UwB4/60vBIlTOHYamL7fjiDHM3/bf2zFj6hkxRv4LY9ZXYLTefuPbP+H7f+7TawoZfzMOuH6mBtuPprbTKj0sNPSh0I/KjSbUePyoQNxWec8IMYNqHN2wWCzV6MyahRlPPKtfjxYhHn6ToywI27qQhS7ULstH1eEcLHFaEUbMxaq9i9FtWRuqzyNrzis2q4oacFUxSmsfggZe+wCdiew79Z8uqtBBN2L2BOSqDR70ofsH9Zflatqw8RB61CYbVDRTWUY+Q5tYl+dinZ9Y7ILA26qyDY+qOCMDKsK5BEJ4yH3EsUX/rAi6zVahpEh8U3sbcTKCmCHhU3wq1Ja8jsmPuWKYXH0rloM5z9nPi8SWEDNZxjXubJ6CJYPq5upDXbMYgDPzsMDxgS4ozBN38kV8HRyghXhYAmyW7hq17LiQiZmPP4R1/jeDLyQcXizpFYIjFHODkofwtweMX1Fi4nz84/GR+Frv9+eTfZhUZrV5ES8Z25WA0ceTi+FWCrqa6Lz1Nj/Ctql4uuJeMTgYbdVeRIbX+SeS7iPYHqgXcmYM5lUux2z5kBPiwMa9YngSD3TFK9UGi/sWoECcVv/ZOj3I0YBVLQa1LjGY6biQihq05pXHF6thCAR1LIozuYaFb5nnQQOqGMRvF4NtcJ8TwKwXUG3tF9iBE+JjzChY4DiHlZhGIqitIQZXygHUne0X93YBFtynN2nunVMg7u1W7LUGaDr/4obQuVe8I84jH+XVm0TLsULXKcTAVSFW9PHeOQaUPv8xXnWcB6i/nx+JvcH9+pG/RO8XdB9VoIZ+HEmk6HW5mILFuW8Y8peIz/2Ovfo4+jodn/nKt8Rv5UdGWztbkSE+p4/Xet0Z5KkgMXNdCJUwYkYwdeIYoVIu4QcvmwWNkULMYBeNmWLZ1Yxhv/7/kCduK5NzXwVQc+Y6hheVR7AGDT4pL2hG3bNcKMwxUh0GwkVotwgx88kWvbIF7d+KL9akGUIqxEIVdi8zLAgjcsTPmBYBHhaCtmpj3w+OS4GQNdYaxDeieDIJhs9D1oAPPsd3vWKfovuD4qRj3W75PlWV23ugbe8yn0Adwbx35kjh1RFBKMTFmkdx94g+l1WlY12Z28pis6KsRWOzcZ1l92PKCNEXZ74JWmz8oL62zZaqfQIHxbEweabRN6uQSwNL83GbpeXkavt5lqyYi6zeQ9hmiLSTq0nITcF8q//oKVFWVfZeNlWq3RJJXVObeH7MxC8LzbszEwsmi/ULF4w4EyEeHBaNj+op8Nf53ijIvQu/mUhWD7vg2CyEQ0bJdEdgL1mBQvtZ5zvyDr0hKURu86Nqh2Wq4TSO02A8eQIW6E3J4Rz2BGrQdGM4Ch92mt+3okF+gafZBmLXAF65VDx9k9XAfDLfipfFwIXMUiyN9T6bNFIcvx9nDxtP8DTIGtaee9cuRD5ZAxwDcZUYxJG3UA/2PiKkcpp4rzjfmujlDHHg8FnxrgwUzDEH4nuxoCDDLo4c50rn8UadlIaYFmNfBK/TON6BjVVCOGSgtNwpj+yfgXW+I/1NjjcPCaPguVn9PdJm5dz6kt2a5Cs0pQtoHsbIh3u71cVN5GDgTiFm2oTGlZyoRpt4Ch5d6DYE/HR0OwKH2oFx81LaBZvSgoZMXeVFw6VJLZKpq7PJEjOKn6/QL18ufjFWrceMGEjfC+uaOI/GcNOUyyYIoeFD90VjYF+Lvy4kKxCJFrIeqGBZ09LTcbkrKK6s41piIXdsDm1NCiUzpkRlVSHaTrkFX6KwCzpCW608LDchtKB0iahmdJOozNG+qsDLoacijyUpU0SFkPj6gmMgzp2AXwqN0nLuot7ggxVsHCOW9afB4Yqqo87ACIw3LCHoa0NdJOWZaOJq0wrUHgh+wpFtAdT/CIyZW4nl94R+0rc2Ogdi9wC+sphcK124ZA5aRKBBWnhyRns9iYehhYKaxYDtZYWQ6HPwCIp2DuJeIkSeb99Z1DnPNxJCqOwVAs82EGtrVWujKWA8kNcUKx5iSXIAl66K/24fbxcE8VzTTRKy0sWCPn8Ty1PxY334h3tN5GDgZly1xIxkH/4t++y/cJvaYOfsHgS+bML1YYUor1wk5FLqkbqCRijR6UJdpi3aspA159GQZUFaPLwHf6crSFpsrMH6hy70IAe5ZWLcu68YOHwIbZbAIfT08sSirSA28TUQKAuUORPKK+aHXGtSBJKo0fvZZoZZwm/OK7ZjracAbPEZDDYfkXAx3E5ScPSdxg6H4FBTo39rLOHiV/yZdDv14QQstR1LLJSLJV2gmBzH+Zv5dwaS4UWzQj/o+mk66HaSA7iHdcNvxpUg444YP1Xp8qgRYohEjWVR9HDXXL3kO5gGRZRLhCh3U2udMyYkOqTAMyw+0lrVdwI7HA8Hcmq0aRENF7/iyySMpFubXEnmscRixg2lPOSCC3v+ozB7evAXPwpGyWDg62eOxRcMHJExmG6I+lQhdQWN9F0r3x09EaW6786NFgSG1YWCjZ1Bum6UxWandLMsNmJCVJzNmBzg/P5v0N07BcVraF18m5MiOqKJ3YkSyukj/jNdbd7oAF4KKNYxL7Qo65WbkAh8U7nyhHgJihrdpjNGKLhY7rFBcDlJGi6Iwc1yHSl3U3/zRZt7yQrgpeDYYNzI2wd9B8VwqFk8zngXa/EJMk4lrABjSoRnnHvE2JyEQUGYKjiSLMYBWyyfdiNot5MawGOzBPRfiedT3YqXLWsiua4QWwxKV2dIrthEiHQ3taIhXuuktDpZFh9lQXFaKVTAMbl/DIvou/HkmmlR0/MpuNo6jrm4AnVTECvA2HEN9tgcZSGUFhJy+0SykBTMkjE2l5oTGMRri2WN7DUZDFI+hiZe311mofQ3oOey3jDQBONP7ANpXNl09eCs3CgUL1OFk2f6kDdDWXB6ukj9xIrD9eKBdPWMKEaJIwA4dlRMTcRjrZkpZyO1fR2aHRUdFPukRU3weiJfn2QwXE4SIS4ofoXcTtLd1If/aTKFm46p8bDaxIOna+kmScYx/VAusz4cr4/gkksKkYMwVXAwuZ28B3Cn1SKIjlWxxcLEA93HUtTkYLxswy6yTKz4HptgkVYmJUKkuymmYGAnW7HjWL+y+Ghrlf36rIDjvfa4kbjwcS3dJC1X3HEuyUJ9HlHGK0UIUrcIGwzsy7O4XVzwjXP7XLODrVhWROnuGixSXtBIYvXdlb4vp2931scxbTtRSDdRuNlLipLNOjOxSdknmE/jcPNuHeSqBue8iseQpwNhO/Y3ytk/NG2557JzqnI0WHEophXIjgpYzsTda+3Byrmv1/q+xw8VjEvHcl7vRjxpc62J69RCjaDZTG6Xk3jPF5/YrT1W4HFQ3FGSxPPSJZWq2ZDrKPA1Mw9L54nB+sJph5VEx4eYs6GkyyU+l5MKoKUZUgnM7CuT04ljzku+20qJJzMYmqZwD4DLyQrClNO2wwVhquDg/CU09dYIBrbQgqH0aXN2y0psomnLcQzsNP3baT10xulYIqvcnPl036tYNUsMn8d2uGJOSADRzBppOYkxGNiJjMsRAm5puRisXdenrSqm2CJLaVwuJ9HzNSdEW6V4wTbD6+Y40Nkl/s3HQs9ZRolFtWXGMKkZcf4us3BB6gIdrhFrZuDMJ2j6djMuekzbplhWOTHnq+Q4sBJFmtVyoieleYA5717moZmFYXpV0Y+2D5ejM0nWGZVTpcuRz0S5S2iKsDX12Tfniy1Hi84z44jrcLqmrJwroe3W+8xZSNplQ3+68Mq/4m7bncslwj4+tZzk+Wbbc9EQ1nWEcJyXlQdIQ21RkkFXf+t2zcBrT3eex34kFqLJh5N8QnlVvGsIOfOukMvoAqYJUTM6mH8lXF4YIyeMxln3SSLrGSnLh3x9pCNfjHb3eOa3sWoiBQm16cx5Y2Lmj4m2TefxqM8apnq8N4HIHBzR1sChQVkKFL/cMrHmGgmPM79MuFwoJHUsfOshWa4Pz+PESuhavdtznBe1KW6aVaL9UK4Z97mHcOZy8d7XbFv2F01hN69NX7NXfhtXziCjX1yvGYQ+U3VOOY7PWL2Xpu+Hzt95PDrvhmKP83Ug70/U24QGWVPKi2545k2ykHlofu04f6/cbToP041wuW5SiPQvTqkFTb85/SwFsMSMa5C1BlifZHEMw6QpWtD4CoZURw/utuR3TJqhEu6N/1f4JHhK0HSgacNz4vFu6JAeLqc0RAbrek3tDsbDMAwzlFBTnd2zedIFV+4cJv1IRjBwGsGCJkmo3ClqJpJJyWblEkpm3haGYQYWchnI2JOPbtZVM0hUbpIuj9adzpT8TFpB8aYRE+4NXdjllES8Y2i8YlkYhklHQnEsNAXZke01DTBjN9LWVcbEzFB1OaW/oGEYhmEY5paHXU4MwzAMw6Q9LGgYhmEYhkl7WNAwDMMwDJP2sKBhGIZhGCbtYUHDMAzDMEzaw4KGYRiGYZi0hwWNH1SiYK+9KGM6QTWT1u9tTX5hRtlPrXjSkUBw4KBaU+parSUp16yvM9iOszgmw8QB5bGpDpgFKzVUhqBavFa9CYkruRgDsiinR+FDhklhWNDYoMFRV4OmEgW9XWgXf1KCvPVWReghAxWyHADBk1SswpmUrDAfG/RiL66ZIGqfwHv6+Dutgt5+DLrIY5ibY9Tk8Rh+ownH0qAgIcNYsKCxUYXdX3fh7rXiCXzzTLGegzLx9L9qDvDdtmSWKki8leHk6iQO7jGjxJN5fXK5WStH2f2YMoIqcn/OmZeZocX+N/BURQUqbBWlB4qpmFU0HNf/9UPkCuMMk0KkmaCZikXJNoN+UKae9E8BeSNy0P0XEga/wu5a/XrCocH+FdyNQ6jSFgBatuG5IfeE33P4zeD1bVj4Jr7DXKzaqy1iN0HP5VQQbbFBZf8rV8zGKL3OMAOCdCUtx+xsve5FwSSMQfwFDvneZgaL9Cl9QF/EhwsxHO2oD+zBOb1Z1XIqQveHy/HvB3ajcJLe3nMMp977I37Wq1GzphbrK6YAzefRJr/0U4SwsddfkjWaihpRtewiyvaqYpMEDdhOiwjFsiyZrFdMmj/DhtVrdb0n4LuNfqJJu1W61f4uyL2xdi56qvPx1w/c7bXp7Rbe9aVCeF2D8z22fYz2G2cYbfcKgbbsCXTIFRJtjyHLdWy1Pc+2r8D6DCx0X7lwXLsnzmO5aml5n5u65i7Puluyj7Md5yzw/aw1ts/C7362qNyE6iX56D/2Dp5yVD9W9YNaUWM8vZs1eSRtNah4KfZne3lsiPfWjMfHz5fCOqJXnZ9EtSmhmBGjPdGi7fosQrWTFLb+ibHPIiLPqQBn330Kl8qNdvtO4J1KRxFK3XYI77ZcfUaYx3P2g1dbQVZiU3U5Qq1GuL6CRaicOwa40YSabUd8rC+jMHtFOQp76xH4yrwrn0Xe+gpg12K030F1gKwzbHbXA4p0bzNMkkgPCw19EekLQl9Ezy9IBvKeEWIG1Ti6YbFYqtGZNQsznnhWvx4tQjz8JkeIi3xs2NaFLHShdlk+qg7nYIkzhmYEWRcWo5v2JYtD9XlkzXnFZlVRA5wR3yH2IaSlwjZAZyL7Tv2niyp0kN7MnhDGPdOH7h/UX5aracPGQ+hRm2x0rPuVtpB8hjaxbreaOF1UyhWmBFdon2141GVVyasQ1wohPOQ+4tiif1ZEdJutRe1h8VM4ohgl+ngkJNZX6M/AOtbkx4wYJsN9JcRMlthCbYdcWUYgNwmeGcf1cWh5E9/1TsGSJAV7O/ueBEyobYfo6j6C7YF68ZM/BvO8npgDO3BCdE1GwQJHwOhKTJPl2hv0wHUvXg1Ui0GySwxm5KKgpQateeXewabRQO99fiT26uO9c6wf+Us+xqv36dcT3aYexCGEiDqWWN69hoVvmeGwNHgLUXG7GOCD+5wAZr2Aamu/qPssFjJQ+nw1Fl6xzk1cZ2YpXjDPjc6/uCF07hXviPPIR7kjoJdElb3PKlBDX0KToKvJ4zUTalOImRyjz2ra3G1ajLpnuRIzPwqh4itmBOKHaPwwoP2CtwwZ/dBuzJh6Bqfk7+yf0NYzGYW/fw236dclke5thkkSKS9orC/i9TM14b+ILULMfLJFr2xB+7f9wKQZQirEQhV2LzMsJSNyxFdSiwAPC0FbtbHvB8elQMgaaw3iG1EsntZt8R0ffC4GVLFP0f1BcdKxbrd8nxqUvQfa9i7z+UcN6MEYmztzpPDqSIZLbM2juHtEn8t61LGuzG1NsllR1qKx2X6d4bEE3UaUzckUffa+cfy1+CsJwcmLtYgS65ZI8BQOhkWFAnltnxvFSJGonILilHDnncOeQA2abgxH4cNOV+oB1J0V93BmARYEhYSgcpp4Iu/HiRo9NFcuRWkmVXo2n8y34uWdreK9pVhaqTfFhP14Bw6fFVsyMNKyfia6zUkjxdH7cfawYYeggd2w9ty7dqG47lbUmNYKsU+VEFvIW6jFVpR9FittNYbFZysa6At7+/iQaHKcK53HG3WiL0Sr06y+EAJkoRBVrTvDWFBiYGV5KTL6TqDKsERtfUmILdHmwrV2OUcuoPKi4Wg/FHBYXdxEDAa2Wb73obNeftHF757cYBDu3maY5JDSgsb8Im4/Gt6f29lkiRnFz1fIGZCLX7i+aFEiZ7W43Q0hzqPRz81BlE2Q1gNPui8argo1QFeRpUIMtEu0pcG09HRc7gqKK+u4lljIHZtDW5NCyYwpQG8jTkYhltpOebiEokBem8WamchDH87vt7u88EOXEC7hrFgxII+VSvyEI9sCqP8RGDO3EsvvCUUeWEKiYE5ogFpZnA/0nUXdfmNdCNpLej1IoEEMbkDO6JjtJbbje5HwNluuyessfd60ApnciwUFGeK8rqFFb7Fwiq1o+ixWWhvjkCDymkLcO6dAnFUrGhxuu/hQFqf+s3UOV1QLrpGF6g5LeZL7qBLzxl1H05cB7Ik4YylyMPCNc/vsbvyOq7ghruwXnk8u/vc2wySD1BU02bMxfZz+Ox0RguggPbzMeTRkdZEWD+/B3+kKkhYby80iB+Ec5JYJAXNfMXD4ENosgUPo6eWJZRVyyVRsE1+JxxRk6u9MNcss6EISi3YtxQO5/RJ1rIFgeNEsMaxoxJP/XnEzhFwoaiBrrXPEVHgM9BahwS3BJLJN6WYh64Jy71T75V+5eskxgIcIiqho+yzBkDtJnbdebPFACea+8eLXQFwjudvMNqtfQKlpki6YhcJh+u9okMHA7Tgd4eExXmz3NsMkgdQVNNIPG0DNmetS3Vc+mG5fBS0IDKsLBac6g3TdKIuNzHUSdLMQykIxRvySnd//Dbp7ldtkTI74BUuK6IgmdufmkeevrV3KWkMuLtOFFFrC95sbFcPkOJ5PbNHgYT1FQ7kEHDFiWxvJjaNdKNJ1EttTfv8VP9mRPOJrcyte1rEgFeS6ElfqFw/iRVen4Xq5yT6LFRVwTC44ff60vHvCZqFJKPsvgb4pFPwcbM9cLPfX2T3ifiILiXL7hLeQiPtwOsXYtCQwiDf8vc0wiSblY2h+OrodgUPtwLh5MU0FzCykAJYz6LmsNww0wfgTYzCNY1CWUJI/+QfF5VC8TBVOnulD3gxlwenpipTpzYtmIYqArBz/aTkydscI2E04ZZ9gPjXffFy59hLpWtIxTGje7Y73icgqlBTFFn1lQ39eoXgqPygNQbl4ig7jEpCBrsqFIl0njsBW2+BtouNGbHEpCSLpbQZe1qImB+NlGzo2Jm+aS+B4unIi9FlisQKO9+KNMC6tA50kQazr0ei4mthxupbCc+4r9WA4vKjc/8EwQjCwH7dNK8Iw8Vty9YTeECSKe5thEkzKCxoJPWl82YTrwwpRXrkostmy9H05fbuzPo5p24kiysG5ZLNHHpbgQG8Nxkp85FU8hjw9+Hfsb0TP5MfkNOH48rBoC4zNCmRHBSyTC8gerJz7eq3ve6JGT7nOomnUVuCudtPlVdx8bhqrzzB5puHyq/VwOWlhFwxgtrIPy5U40cc03Y1OZD6QedLEXx/YjiO+mRPUYE7uBWkFcAa26sG79GlzdtFKbKIpxBEG2bhJcJs0lXmTI5DYGadzYONeIVvyUe6YXbRqVgb6j+1wCJYIfZZQlLiwiS2awu10Ocn4ItFn5dZeor9oZldfPHYcHXScV46PHQHAfkR6MJxaqmaRxpQZeOxrmPLrDNz4tto9bTuqe5thEkv65KGRkOqfBxwyFL/MQzNLPCWY9KPtw+XoTJJ1xjtHiTufiW/OF1veFe8B1OmasnKchLZb7zNnIem8LvSnC2f+FcLdtjsPTYR9fHLByPMN5mrxPi8/95tnvzlz1RA+bYdwtEvH+AuwwvUe+37y+i4/Ckq7YfWZ72cpcPcZ4b5m83op4H3eiHD5QAxoii4NkL45SWgatT1+wisXSzRI9wlNjTbb0e132XLRJK5NQrlt9Arhea3OvCs0a8idH0cSsc+iwPO6vfrIcV7U5kfim+N8r3VOcoVcVE+hbs7HeKHgbPBYnnlqNK7+tR3PQh3XV1TKHDHjcelLU2io39VhZ2rCTL5QeWhG6zWLzl2L0eawzsR0bzNMAkkzQeOBFjT9Hl+swcQaAF2DtmWZ8EsWxzBO9MBFeVriFQy3HNxn0SMT7iFCEjwlaDK+/RO+/+c+vY1hUov0cDmlIWawq41gPAzDRIcVJ7KXB+ao4T6LlmQEAzPM4MCCJkmoZHjuBG4lm5UbIt68LcwtRuUm6YJIVEK2WwLusxhQuWIiJdxjmHSABU2SoLwylCzPnpY/VArBO+aDYRQUSyFziyzJ948TYWxwnzHMrU36x9AwDMMwDHPLwxYahmEYhmHSnoQJmtbWVrbOMAzDMAwzKLCFhmEYhmGYtIcFDcMwDMMwaQ8LGoZhGIZh0p7UETSUrbJyOWbLCtX+ZD6xG/f8/jXcpteDUMbg9eK19e/DO0E9wzAMwzBDlZQRNFMnUrbK01zIjGEYhmGYmEkNQZM9G9PHxV663sblP+L7DYtxdMNz9sqvDMMwDMMMeZIvaGQp+fCupFGTx2M42tESS+n6JDHqnuWorFyEqXqdYRiGYZjUJ7mChuJiHi7E8BuX8IOvK2kqZhUNx/UzxzyLo93239txj4yNUUvhJP2CRTB2Ri9e8TWl78vX8kr1uoGMyTHibn46elpIqzGYF0U8D8MwDMMwqUHSBI20dMyluJh6BLYdwU96u4uCSUI+XMelZvceJDZm/LoDTdKVpJamFv2iRdDV5PGaxYlT6BT/jS58Vq0HeRa3C4F049tqw011DnsCNWi6MRyFD1diUYHezDAMwzBMypIUQTP1wUqUFw1H+6HIVVx9g4HHvoYJQmx07kpETMwWXCWxM2mGfQZU6QyMRj+6G/bpDRaqAm39j8CYuZVYfs8ovZ1hGIZhmFQkwYJmFGavqMS8cdfR9GUAeyLFxIQJBr5tWhGGoRlXT+gNN0nfvmO4gcm43XA7ZRZOBnrOoOey3uDg3FcB1Jy5juFF5ah8kKNqGIZhGCZVSaygKZiFwmH67yiQwcA3mnBsIIKBL+9Dd4/pdlLups76P+JnvSUs46ZzTA3DMAzDpCiJFTRn9yAQIFeNij8J76rRwcD/+sE/viah7EPPuf6Q20m6m8JbgCzX2fUzNeK6tnOOHIZhGIZJUZISQxOVqyZMMDDx85UO8W8ufjFWrUt0XE28/PzPPejUbifpbmo55ROfY7nOIOOAth8dGMnFMAzDMEx8JEXQED8d3Y7AoXZg3DxUrpgtJIKJEAzTI2QGljOTMpD3QMhFlPfMLKCnX6/HgwoOHl34Pm6f1I+2fVv0dpOpWFRZjsJhUcYBMQzDMAwz6CRN0EjIBfVlE64PG487zfiT7DsxflikzMBb0PbhMdyYVKFzzCzCvz9cjPOOt5h5amSOmqxZmKHX7/rvB9ROBn1NzcCkyRjtEww86p7pGIN21LOLiWEYhmHShv+YOXPm/+3uHtiRm3LUlP/XJdSEy0/DMAzDMAwTJcm10Hgy0MHADMMwDMMMdQbFQsMwDMMwDJNIBsFCwzAMwzAMk1hY0DAMwzAMk/awoGEYhmEYJu1hQcMwDMMwTNrDgoZhGIZhmLSHBQ3DMAzDMGkPCxqGYRiGYdIeFjQMwzAMw6Q9LGgYhmEYhkl7WNAwDMMwDJP2sKBhGIZhGCbtYUHDMAzDMEzaw4KGYRiGYZi0hwUNwzAMwzBpDwsahmEYhmHSHhY0DMMwDMOkPSxoGIZhGIZJe1jQMAzDMAyT9rCgYRiGYRgmzQH+fybElnBpqx5bAAAAAElFTkSuQmCC;imageBorder=#33FF33;strokeWidth=4;" parent="1" vertex="1">
                    <mxGeometry x="-995.9957142857143" y="3149" width="564" height="194" as="geometry"/>
                </mxCell>
                <mxCell id="99" value="" style="shape=image;verticalLabelPosition=bottom;labelBackgroundColor=default;verticalAlign=top;aspect=fixed;imageAspect=0;image=data:image/png,iVBORw0KGgoAAAANSUhEUgAAAX8AAAGgCAYAAABCLGedAAAAAXNSR0IArs4c6QAAAARnQU1BAACxjwv8YQUAAAAJcEhZcwAADsMAAA7DAcdvqGQAAABhaVRYdFNuaXBNZXRhZGF0YQAAAAAAeyJjbGlwUG9pbnRzIjpbeyJ4IjowLCJ5IjowfSx7IngiOjM4MywieSI6MH0seyJ4IjozODMsInkiOjQxNn0seyJ4IjowLCJ5Ijo0MTZ9XX09fkIYAABH40lEQVR4Xu29XWwUV7b2/8x7E0YNPnwzJLwBkzO2zMRRZMmBCTIospRDNKQRMrkaCaeVcDeDLIH+QkKZi0RIKALJYuaORI2RzlXwBR1GIZEQwhYJxJIVjTNYZl7cPiMzHpsPI7A1J1fz32vvXd1V1dXt/jRu7+cXNemqLldV7+5+9tprrb3Xz7Zu3fpvKA4ePIjvv/8e9+/fl01CCCHLmP9j/08IIcQhKP6EEOIgFH9CCHEQij8hhDgIxZ8QQhyE4k8IIQ5C8SeEEAeh+BNCiINQ/AkhxEEo/oQQ4iAUf0IIcRCKPyGEOAjFnxBCHITiTwghDkLxJ4QQB8lZz//x48f6BUIIIcsXWv6EEOIgAct/cHAQDx8+1C8QQghZvtDyJ4QQB6H4E0KIg1D8CSHEQZam+L/4MX710VfY1ma3fTT89ivsVK/96r/esnsIIYSUCi1/QghxkLoT/6f//Q5uf/IO/vr1dbuHEEJIqSyu+K/fhUOJQ9i13m4/L/R9JLCv2W4TQohjLJ74N+9D4t0WrJqbxN9yphJ8iG0fGV++fnzQjpX2FQ/P1+89cuIBNk4QFQt44b8uqb+5hE0v2h0Pb+Ev94HNbyZwaOc6u5MQQtxhUcR/3c5DSLy5Gbh/E8kvbuGR3a/Rot2F2PefaneOfnw+hDn7sofn7ol6TfOP63j4BFjZ9BZesLsMb2F1UwwYv4rpf9hdirvfJJG68wyrdsSReLvJ7iWEEDeoufg3vZ1AfMcqTH2bRPKbu3Zvloa3lJX/ZAj/r2If/nU8uTsPrN6B1Z6FL7z4FtavBqZHP7M7sjy6fQnJb6eAl3Yj8d4ucAxACHGFGor/Oux6L4HdLz3D6JdJXB2zuwN8iLXbgbm71/GT3VMJP32trHvEsL416/p5oXUHVuIeHg/bHWHGriL55SierWxBPLEPHAMQQlygduLf3I6WsOO+5nyGx+N+149x+cx934+nenshNuM1xgAIIQ5QO/EXizqZxM37q9Dy7uIFVp+O3su6frTLZx4PRwq4lDKB6FGk1P1euh2ISBBCyLKk5j7/woHVe/iXBGnXv2K3DToOYJ+XzHA/Jp4Y1492+Ty5gye+QK+fgoFoQghZxtRc/IX8gVUbpN2+L5OGKWmZLWvnozN6isKcc2VTFzY3xTB98w+R8QQvEP3sTioyEE0IIcuZRRF/TSawugW/9E3y+unrQxgdj2HbByZ///X1V3H7j1ehugQfvnkAdg7Apt94Of9/QoM5KMNPI3cwt/oVbFqdJ9C7fhdeewk6A4luHkKIi7CYCyGEOMjiWf6EEEKWDBR/QghxEIo/IYQ4CMWfEEIchOJPCCEOQvEnhBAHqYn4NzY2YsWKFXaLEELIUoOWPyGEOAjFnxBCHITiTwghDlJ34t99th/9/d7jDLrt/trRgZNJc70zCburVuw9iYtlXacbZxbj/uqEjhMX0Z88qT45P+ZzvHgiuHfZob9DF3Fyr92uGuY7pn93Z2v/qyO1p47E3/x440ihq6vLPK4A8UXpABbC/DCej7BIu8TR+HQYl5N2l8skzqCnPYb0wCkM2l2GQZwaSCPW3rO8O8kbp3BtIoa2o9X8Xdjv2IT97R3rs/tJPVM34t99tgdtj9WXz//FSx5HaqIR8ZpaIko0EqazOb4ExVW3S0MaqURY7BxErN79jZgf6o3+rNT3pXdoHo37a2EZLx36jvVi+Kn6XeSMfspk7x40N8xjOEXRX07Uh/irH3XntugvX9+PaWDtlup8yesN3S5A+spx8GepOsJ4G2JqBHT+dP5ucPD0eSWMyjJ+v0rCuCRRBsuFYcw3tOFINUaj29cgZp+S5UNNlnSWPP+pqSn87//+r91TGeLD7dlwLXq4Kdbe0WaMnTuMUzdkh7hg1BBVvyioTiPzmgxfI0YQHvpcbZi5Ila+PTZTLMB/HoO+r/b8PwuxQA8HhGiBc/quP/JqP+JK2DVK0HojLHuJf8TXRr/mtQPUuS5v8t+nGiV0hTuLYt/rjPrby9jiPzbi3vR9efeuyG0HodDnJJRy/4rAZ2f35SNxBv1qhJAu5tgIdFs0j6n3PYkDvvcQ+T7ttbL479+0e/NYL65t6NFtps8xfcD+TbhNFv6c/JjPIU97lYJ+DxsLXovUH3Vg+XdgT3MM6R/tz0WCeV7gSfz9NyYxo18RrKB4vkn9uIY1GStvEJOP1f8KjhTmMTsu/8+6e7quqNFFBIOnD9trpNRP2vxws9ftCgqBiFO/+uFCiWXmmPNAPNcCbdzvj22oc0dacN1oFbEYG4gQ/ixyLi1U+lxR7gBpM3Vf0iHa++odAtqORrlG1N+qY0Ws/PfW43O7ZQXHnEse1zYcCZ5LxER9Tht97WWumRu01vcvHb8+Lr87o+PXzco6TWOkGDFPjujPq/HVCtyF8r77OzF7zr5P9R3JiSfIZ/7qSOY9Zu4/HKdqPoLOB73aJRVTzy/uh2o/+U7F0Pxr752W8jkZ9KhYfWatTAQgEdSB+G/HmgYryDqYJ9anfPHnldU5C63THnu3YKP6n9dRGPpw3GeZjj/w1wiTH5QvUKuHtzOYrIF147kkglay6mCORVjt0nllRiZ9GJmAEoU9QcFLtKqf9TzGvisk/YrANU3QEw3N2GMFo+NEpzqPEmvfSCjjGonniqNYy9lOzdxbtjPtwJa16n8TIwFLs+9YyHrdo6xa9R79naO5ppKqPSFhl/vP3NsgBsbU59ewRn0r/BgDIXzd/ITvuzzSV3zvy3YoGzf5znjjFA4HRpi2/UOCHGuYwTWvLRrUN9DnxottMO+01M9JE3VPhFiWvvhrQTeC3P2qiIb5gW/foH7sjyeDwmlHAWIt5svoGJxWR3jiYTsLT1g7NslWLSjOSvcIdl7RmHtduKPKueb4rOoyYlijGyCfaOYbIXmjoix9x5QV6utc9N9ti+dPB9TBQ3WmB6ETqb+NEvbi2kwMhKhz5kcbATmdSCkUOcoIo9s/RKD9c9u49M/JYxyzqkP1OpBy0b+7p2MYqIFRRJ4fS1/8xRrXFr4VUP0DNxZm7o9dWfl6aG06AOMaCg2L9Y9vI7aofeIqwNAw0n4RCI8mqoHtZGami5H+xcSIphbrjCvNPPw++1KQzkCPynznjEqBzd8W5rNZLgTnpajHUTUCtK8VT/U/p2Lw7r31R38HT5YL9ZHt48OIhv0xZPBbwD5f/blhbeXm+kWN5bt9AzD23YCyjswwPHI0UQ3siGTpDb+NZajdTNaPHHiU+YPPxkJMRyy+8OLnQNTG7fY8MPEPCcr62lR/J0ulNp/TQuhRnTq/JB/kTpoj9U7dib8f3RGIVZ3PWhefq+0AjJtD9nkBYhlJiNAYd4MX/CvFdZBloeG1fT3st68A7b4qw0oOBkaLCYBXgnTEtgPw2ubGAMbUdm6wtVS/vZ/S3Ru6oy8wyvOs3vIn7pmRKiauVSFDptzPqXR3WBQ6cOyLE5HlQd2Jv1jPJvhl0K4bzy+cOJPzYzVi5/ejGqFo3C9ZQUZoBr8bw7waUssQujzXjOfr7syTeeEFWoOZMSJ4J8+WaVHpYJ4/G6QI9p7EkXbVGkOXMwLblzL54MH7KpdunAlbiDk+ftsWqr39cZmOE0fQVvZEIhsv2Naq7qAYrDDnHeXZ1xXld9jWWvffk2Q5leX2KfNz0kkB5X6nyXJn6Yu/+Oi1T74PlyUVrr1Hp/6ZmZomjTEzqSd5HOdxJOATNdlB/mwTK9SKTGDVWqNKorKdhE7NtOfROdfiPrLbEUNgM6vSd4x6BDoidW96yB/w2x4BUuUO2fNkAYWQ9spcz+bBB1JQZXQkaYUR/uTSl0How/ELwBH/eaKuKW1xJe2Ly0R9TqWhO/BQFk1ebKZU/o7GZgMpig3S5yKjHknXlNRO+z73zKK3LLePoozPyQRquewHiaYOJnlJOqbkU3OCSQ52YhMKTKKSXPrc15Yn2TkGhSY12YlS+Sb6LRfsd6OoSW8LwUley5I6cPuIFVYgl9ll9CJeYt2HJlE5inaNiKVdwDVSmXupXlAd3PtmXklVrP6o9FRS99SFz1//qNVwN+jPj/AvO0jW3bQUVjd9zohrRGZj53xXLHqSYCw4OWsZUvXF/nSSBA2w5UZ9BHxt1g78/mtZ9yVn2V4XyfqWOY1fYVfuzI2FmJnFsgTHUlydtWrstYsgnqtwPZ8AMn/GF2+oSnIAed7UxcJuhBBCqkvdpXoSQgipHIo/IYQ4yJIXf3EhrVixwm4RQgipBrT8CSHEQSj+hBDiIBR/QghxELfFX6atZ+YNlLOWzVLBVCTLd/9e6cvyV6j04bXZIkywC6+Fv5ifz0Jtpu+tBvnu2TKl+cszElINnBV//SPTtVK9ddFTQIEKYEsXWasmjsZluICXt558eWvg15boWecVomcgw67/z3V0SG1xU/z1j0xWkfTPguzDcb3SZH0tk1DMVH6z9n+VlvaVFTlrWEBkqbBgm9mlJHKKtleAKVNajfX/CVkYB8Xfm+afXdM+g14jv47KCOqp/FJIvJpT+UnRqI4wNSG1IaphMNji94QsEkt+eYeqLxWhl7pdg2uRy/6a5X6bx/zLIJulkb3iMVK4O2fJYLt8brZIh6ytkjtsF1eTLCyWQcryRSwrHD5O1qOJWpZZL2G8dhi9FVjh+lrNY+ockzjge5851xRfv65rYMlz74Yi2iznmOg20yy4PLH53Np8pT0j2yznc1po+ecisOeMXla7FOx7WO5LTZMlg3OWv67s5ZUKlB9uIKCYLfSi0cFNJVCB2qkjaA0E+pSIvQ+cz7zepaxBWWUzGLAzgu75c82j90FnjstABN24pOxxdkG7XN+yLWhfdrERH1IhStdMsNeMcmd47h5blzcvxbSZPUZqDXjH9A5BF8Ipx4XSffYIcMG7lnrY+w+0mU+kM8edm0VnpUFbWwiomiU6CVkMnBN/qd1qSgoq0bbWpAko+ks9CsY9lGvh9uF4eDtkeZt15YMlFk3N2DEM+CxbKXQesGSVQOW4cW6cwnldweyAumMfthrV2HcVS78msMyxdn+VU3C+mDbLHuO3lAdPn9edSuOe0rOI+o6FRgzJy6ZusF+Qt69Rn0iovcRvX7GVbUtI6mpzhNQPjom/8avqIJ4WT1vIXAuDFHM3R2ls7dlMqcdSyBSJzzL+QARCWdgFUiSDxdWzRBVr79i0Uf0buueyyb1mWRTTZjk1fT2qKaKhEZygC5LkjsiqQbnF9ANU8n0jpAwcE//tWNNgLHxT33QWIkFaSO3zDNZSDI4GotFpoz73kXZ72Nc8xMoXd4RxsdjjQi4HPTpQf5mp+eo9/L72pUwJbZY/86gMEQ257+QhxfgDiJUva9LrDsA7bglkdnn3bl2Hy7rWAFlSOJjt4+PxpHbXGNHNooXJWoprFjBDveBsWtxHni9Zi0wEGb+5xAXUthTH8HUAenSg/jI798D/qIO87yLbrDAljmasLz8WiDHY9s1BipLYY6Qj1h3tc+4AdKek7scWvq+/eSakXnFb/P3ojkDcQtZyta6bxlcLSUMH9jSLL7/0CVYygUkL1NotGTdQKe6Dqrgaqk0xbWYDpLnH2Lb0gvFFYlxlZdTklY5YdwCVt2FVXHB524WQ2uC2+Ivw2iCrRvyu8IKyfbg8pCzxqNrBGWvd+pYbmrHHExA9jA+7fSSNL2xhmmwdb/Sh0YHKIuvx6qBsMKj8/CmuzU4NKNFVx/it3HILq5tO0N8O0ta5bh8ZoeVkVonrr+K4iWcAhNyGhCxxHMvzF2HowZqBLhwft+4CcbNIyp9+HpFrHs5v124Zf264OWc2x1xeH0GrTWXMZrSE89rz5KIrdP5+2Gedk0Fjj6tGnn/ObGdzr/77j7wni7i8Ar7qBdtMseAxue2VJXis53rzkPsZeTW3bXLegxqxVdJ2Gut2yj8HoVjs94h5/mSRcG6SlwhA54NKJ+QsEazwVD7BiJRLNTpgA8WfLC7OuX36fpQJQKGc+Xrlxilcm4B6P0e4AuTzQI1eZCSRHqhU+IWI9FRCaoh7Pn/tV29EPJRv3322PpfQ7TsmM26LjBOQ6iGjrv2yRlRv1dIzdbbXtk525GRRcDDgO4hTCSWY8OXbq0cc9bqaorwfSS1tRCvTBBeN7rhJL62mu03mgnjLXHA9f1Jr3FvYjRBCCPP8CSHERZwTfxlJrFixwm4RQoib0PInhBAHofgTQoiDUPwJIcRBKP7ELXQVsX70F6irUDW8a3mPSquG1ZR12PVeAom3m+w2We5Q/AmpFcWWvlwKrP8ltqx8htHhu3YHWe5Q/IlbeIJc8Vo8y4umthasmpvE3yqf5kPqBIp/DVi38xAS7+1SA+nSaXpbDb3L/FtCcmnCvkQC+5rtZiRN2P4S8Ozvf8Mju6cU9Pc9sU+dhdQTzs3wrfWMYRHv3fJDupPCpdveT+lDbPuoC/jzO5jacAmvv+EtP3wPo5/8DgGPwPpdOPSussIwhZvJqwgPwv2Vw4JrythVIRFcYTK83HHU0tBFY1cR9S2enLtUsyK8dHJg6Wq7lHPUctbm76LPmRd9T80YO3cYk3HfdcPLNYeXkC7YDuFluiOW+s5ZcjrqGI+FVuwMXy/fct+lXFOxwHfJQ8Q7vmMu55iG336FFvTj9vWX8asP2rHS7p9W3+OJYbuhkQ5mNzbjGUa/vIRbHD3UBbT8q4YJmInwT32b9Al/lk2/+QqvN93BD5+8g9uffIqJJ6+g5fcf4wX7uubhLVxK3lQ/183YnTiEXevtfsvg6WtKclUnFq745BVGHxuwgieC0m/X6relC6W8pJSOLCfY6Vs+2pxLPaQOQiCIKeJklzjOHKNUor0nG+zUC+sBseY9oXuwxW1KrORlMHV5ZanuzPuUWsn+eyvW/y7vs992ot576DoPxH1tpgO5pt6Beb0rsyZPOWUYu88eAS5411KPK7LybE9uQRwR/kC5ymtY836ez7J5HxIi/HOjSBUQfvne/vLlVcD98ehjtndh5wc78PBz+c6+gx++n1ff40vY9KJ9XXMXV5MpjM6tQsu7C40yyFKB4l8VxPKJo2WlWFhJXB2zu8M8GcIPf/wDftIb1zF98x6wegdWB35IQqEfUx9GdP3fViUHWUw5wzSuZSzsA6Yy1jm/Fd2H47aI/IFSRcoWZx/7zmeNSv1ZnyXbcaJTWaXKcvdb3OqY87q6l7da5SAGxtS2v/qZkGhVf6vut9RyjB6BRdZsG/lKZBaLXrAtp8jLIE4d87ZVp7pH2d6hRd0GT5/XnUrjntI71r5jIes9qoPcuwVSLDL9o7991OcZEbvQbpg3lR2uRp/JL24VduUsGOidx8TnhzD9D7P109dXMa2+Cetb3zI7MjzCrS+SuHkf2PxmAod20nG51KH4V4oMrWXIu6CFBczdvW6F3/LPx5hTP6Sf/8JuB8j/Y5KaBEpmfKt45ta/zVuiUJd/BDZuKlGibHH2tqP5VpvMX85w8Lsx/bdeYXdv21+CUt/vU6+EZukERbFczOgjO3qKwBthPch5l7ZTW4OK6tdrItb29+oj7y88uhC3Y3zHqryjzzALBnqf3METK/yGe/jXE2Dl+lfsdpC73ySRuvMMq3bEmTa6xKH4V4j+8djntWTVjvZsQM1ahhnXjxakCKu5QF3Z2IYSJUqsfHGn6A7Ay12PqCHgr0kcItPheEVoMpatEd3qFEWpAGtdz0wvfBf5jymjILx2NfnmA4jrzBczMSgr37qspAMwx4U6YmWIvPaSfV4UJtA79ZcFRgfl8tJrOW5LsnSg+FeIWDpJ8dGvbEE8wkdfPsEYQjIwqrBWpnX9aJdPiVZzruVaDCJAWb+0jD7iUR1AHvyCqUcvnutHu3zSGKlSUZSysdZ1yaOiACUWhPeC6AFffhdS4rbKQWo32GPODeeOxHS8yFjeMlpcyPJet/M1bMYUxvO5KcvAG3lol1OSwd+lDMW/KpQX8HqhdQdWqmH040DmhODFECR7IjqGYAK/4vox7pawqyIgrn6sbz3guy8HCaDqDsCzdIMdkh8vHhEQdz16Ma4f7fIpK9BbbcYxG/a1h7kxgDH/qCtDruutGEzblBHrkJGY7QA8d5rHo9uXkPx2SlneuwukDS8Q6M3Hi29h/WpgevQzu8Nj4YQHsrSg+FeNEgNeL36M/3wjhrnv+3NTPXXanASPC1lOJqjZuF9SBH2BXg8rrm2BbJBunJF0x4nSq5ZJymjY1xyOK3gdUtyfZaMs2yPtSt6GLodE0XQWktUS31ZBoLeqKMt6QDrNUKaQasGTZ712tMdsiwfao+PEERNgL/F9DE7LWMMf/zBZWjlun8SZUPZPtuOYjRrEjV1F8stRPNMj0ogc/OZ2Y1yUNKP3LWzqasfKJ0OYykn1LGyskKUH8/xrgM6bfnkSqUymhcnz36SfZ8nNlzbD5t3/Mer72wJ4uet5c9aLzR8vjnD+fk4uvSaci46IOQkWz+UReZ4iseeYCV1D36uknNrz5ty7j5z78+7LbkrGS04+fXjegOr2wvMTir1meC6GvDbyavD+hZw5GxHXzMXk4ENZ435RLuZ7pvP8w6Gh8X7c/u+g1Z9vngBZ2lD8FwUj/rHvP8Vfv75u91UBK0B5xXWpY0VW5g6U2yGRcojuEMJo8V/rT08mywm6feoYkx45jMv1KPyKnLkJZFGoRaCX1B8U/zpFXADaV37hOadHlosatZhlKkpYyoFUBR0QpovGeSj+dYb4kSXHu6cdhdd1WaJIp6Vz1OvZXUXIMoA+f0IIcRBa/oQQ4iAUf0IIcRDnxD+dTtPlQwhxHlr+hBDiIBR/QghxEIo/IYQ4iJviL8sK2HXTw4tlEUKIC7gp/rowiVkTXerLsgMghLiG224fr6JUqVWtCCGkzqHPXyij0DchhNQzFH9CCHEQij8hhDiI8+I//mDePiOEEHdwXvx1DdWGNhwI1aclhJDlDN0+yePo6urF7B6T9x8uUk4IIcsRir/Uwe0/AlzoUp0Ai4sQQtzAefE3dXDHMFBnFbEIIaQSaPkTQoiDUPwJIcRBKP6EEOIgFH9CCHEQt8V/70l0bgPmxwYwaHcRQogLuCn+3nr+R9sQm0jh8GlKPyHELX62devWf8uTgwcPYnBwEA8fPtQvVEJjYyOmpqaqUii9mucihBBioM+fEEIchOJPCCEOQvEnhBAHofgTQoiDUPwJIcRBKP6EEOIgbou/Xs7ZrONf32v5d+NMgfvvOHFRv7+LJxYuU9991rRFMcfm0oGTyWx79vdfxMm99qUovPkW/WfUO1gkvGsmT0YX7devL3DfZWE+I90uZxft3RKSF2fFXwvifiDVZdbx7+pKAfvrsQMQwY2j8ekwLj/3WgSDOJWw7XklbffVGTdO4dpEDG1Hq9kh2c9oImXa5lif3U/I88NN8VcWf0/7jBL+48j+DPtwXAlW4/5FtEKrQPfZHrQ1pJFKnMq7RIUuVamYmV54JnPfMSPeizLrWQntYd3x+j+HGnNjEro1Hk/mba++Y70YftqIeL7RQans3YPmhnkMpyj6ZOngoPgrK2xPI+aHLucKTnIEaWzElqoP+WuEXZsofWURxdMJ1AjmwjDmG9pwpCz3V4jtaxCzTwlZKri3vIP4dI+uwbVIa1OG5z1oHuv1Wb7iq1VDdrulpDY0YlDoc7b5fuDKyjt3GKdC1cHE1dTT7pMBcQNEuADCx80P+e8ni/jn42uH0VvA6l+InHuypK8ES1pGXsu+75nQsRqJp+zfGNkOOe31NP970NdVHVyGcJvpczVjTF1nMu47tsA5i8VcO+LzLpVCbUHIc8I5y7/j182ITYyYH7MIhxeEU48ziUFMPtaHGXRA2Oer1Y8RtAYCdqpzeB84n3m9CyntMw4GDY3IQglA9rjeB505MQYRHOOSssedGwbaeyICsN1orcKKpIOnD2fux7vevH2tZmTcPdJWdl8E0matP4bubVs8ImAq7d2Pzge99tgU0spq76kwsNr3o8QtGtHKov5kGeKc+G/fEMP8g3H1TIm2tVqN4M1jVnZnMO6hXOu8D8fD2yELsy8l54uh+ddZwZbrhmsFi/AGLGbVGeW4cZRQnh9SZ2s/EIxFJFqVLM1j7LtKpH9pk9M+Ohir/r+tNdgWgvqcsqOjPozIcWu3VOaz125AYOOmqnj+CVlSOCb+Hdiy1gY+tXimMSLion2yM5j0D8l1kE4J8Y9lDPi9oKKP8QfKnhZrtEAQUY9KvHvyYQK2wVhEx6aN6t/QPTuAbscIyvqcFmQcs0/VuGLDdrtdHt2vKiMi1PET8rxxTPy3Y02DsfDND3JW/bytkNrnGXSHEB4NRCPuiWxuuzz8MQKDdq9I+qN0AN5xIbeEHh2ov4wHzqUe+8NncwVfbrx9RMUnliriwpN71q6rCuMPhFQbB7N9fNh0PyO6WfTIYHxWu27WLGD0eQFTCZBmfNPic7avB0gezxyjfd0h/7WxaiXA6D+X93AtWGgD7RK49bVD71DNIxJVw0ubHXlVdQLVShslpEq4Lf5+dEcgbiFr7VvXTeOrhYKGHdjTLL780idYiTDoDsDnl45y7+SjlGNrhXFT1QjtllNd4cDztJhlpAgbIyofHThuaMaeekkhJk7gtviL8Nogq0b8/PB8s324LFamss6DmTbKIs1Y6zY7yP/D1hlEYbePpJCGJ4+ZbJ3AZKPkZQw/LXJ2qQ5GBoPKtcTELLLvM1+KaNXQI69g52syoRbR7WM7oGImxxFSbzgm/hLAM64cnZEj/nfJ+fdSCCVf/ELW0vT89LH2Hp/fuRUjvmwfMxvUpBrq1/UcgrDbR5Y9GEFr5hzyiGPjUG8ok8gsj5CaiPD756QtmoyWWPOeRXEnSFuYFFZzPz3NY+gNv09/6qyOU/jaxef28MdIdF6+Lw6S6WglHVRiJPK52NcklXMx3T4mLrQUls0gpPo4N8lLrEcRkWVRtF3E9mgbkGcSWFnYc0ZO3HKJarYDJ3mRJYhzbh/xv+bkzNcrNu891n6kaqtQGj9+cVlOy5cOnHy/DbFqWf3WhUXIUsI9n7/2q+cu2tV9thbL+NaerNupnAXplMid9bdDNw6IT33imtMWajGL5ZWETh5Qn1F8WZgcZJng3to+GrOGT1uD3RTyrLNTH5i0SJTjorDujUwYta7boQro9jBrBVW3A7Spq/LU9TYmSwJHxZ8QQtyGef6EEOIgFH9CCHEQ58Rf3EgrVqywW4QQ4ia0/AkhxEEo/oQQ4iAUf0IIcRCKP1le6NKbwbWESsFbg997hMtsBpA5Afq4cibYLR5NbyeQeG8X1tltQgSKPyE+vDX4F6WW8aLQhO0vAVN/uYVHdg8hAsWfLC+8gjmLUTkrU4jeV3N5ibFu52vYjCmMj9kdhFgo/jVg3c5DZQ+zOUQnxbLw92wdfvnyKuD+OO7aPSWxfhcOJRLY12y3ybLCueUdar1chIj3bjXMfnYnhUu3vYH2h9j2URfw53cwteESXn/DW0nnHkY/+R2e2i2N/ODebcEqZa3dTF7N+dH6y0YG1/Gx6xVhGL0+qzen6Eol68qE1wHSJSdzrV7xm+t1+i3z/iWn9fLGjcF9FvN30efMS849WULvU597bbBtvL+NXLa5iNcy15RSk/lGGvb9Zgm9P30us5bQZNzXboXOqYj+noVo3ofEmysx+uUl3PL/rF/8GL/6YAcefn4I/3rrK7R4pUqfDOGHP/4BP9lNoajrkLqEln/VWIdd75kfytS3ycgfyqbffIXXm+7gh0/ewe1PPsXEk1fQ8vuP8YJ9XfPwFi4lbyrp34zdiUPYtd7utwyevqYLqOSUl5QqZFJycGzACoZ0BlL5asZXEziFtBRHKScYagVPageYc6nHuVl0BorMmILrWmQzxwwDUgzHO06vqhpVhMZWNpsYKc2FknG9eA9Z5dS+Vit819SlOPMhbfbqSOjepFBPOEBsit5InQlznPqcpMBNTgEfYeHvmUfT1s3A3CT+FmnPxbDtAyX86FffRfk+9mN6dTte/+2H9nXD3W+SSN15hlU74ki83WT3kuUAxb8qNGFfIo6WlWKtJ3E1n381YFldx/TNe8DqHVj9ot7h4y6uJlMYnVuFlnfDw25TwQvbWgMCYtbhT+NaxsI+gLaGeQyf81vRfTgu1bGUsBwolMUSxfY16vzzGPvOZ4uKCPqs644TnWgUy9ZvsapjzutymJ12yexBDIyp7XBNW10yUd1vqiTpX9qE2kdXahvQXTdaw+2vRirZkZD9jH31nQ1Ffs80RQR6x5Xw//dnduMzTH2vPpftr8O/2K3w6PYlJL+dAl7aTZfkMoLiXynaL7obm+dGkYpw0/iZu3s9MKTGPx9jTknqz39htwM8wq0vkrh5H9j8ZgKHdmZ/crogeEBAbCF5n9WsSxBiBpPhZYl17V9g46YSbX9dkEQs1Hx1D7xi9rMI14EZ/G5M/62Uz/Rv++sPm5KJXv3kZUyewi7pHxfo9Er4ngnFBHqnRz3hN/z04J/q31/g5znGiGLsKpJfjuLZyhbEE/tU10LqHYp/hTS1iX++9qza0Z79wVnXScb1o10+EVZzhBB7xDZ4jt4i0a4Oqdnrq8sbld/uL0gfItPhqHPpCmQZ149x+aQH8vu465XwvIH+qPhEEZT2PTOB3md3hsoL9C7IZrzmM0ZIfULxrxDxiSbFR68tolwfffkEfbvJgLVnXSfW9aNdPiVazfMPyqnT2Ifjnv9a3Edq9JHrv87PzHRW2vXoxXP9aJdPGiPVKJm4hDABbHG9eT5/9Shz/kBJ37PmdrSsfIbJe1UM0ErwWBIR9MijcKyB1AcU/6pQyEefnxdad2Al7uHxsN2RwfPtPsPol9G+XRP4FdePcbdkA72GgLj6sb71gO++HCSfXncAG7HF78sPxSIELx4REHc9ejGuH+3yKTXQWwXMfdUKL4BdzZKYxX3PCgd689PQ8grw5A6e/MPusOiU0jfVOe/fRPILThZbLlD8q0Z+H30kL36M/3wjhrnv+3NTPcW3q1M9Qyl6AUxQsHG/qTebCfR6WHFtez9Yo/eMpB2WIUiSMhpe6iAcV/A6pLg/S2XvSRxpV53T0OWQuJvOItbeY6zjGgd6xx+ojsnXGeakwFadcczKB+vvDCXts0y3T5YFvmfq+/PaQoHeKNr+pFM+p2/mpnrGd4gLKYXkN7VxIpHnA/P8a4BYSvGXJ5HKWEkmz3+Tfp5l+s/vYCJk9eu86v9QQ+tiLCwvhzxv7n5ureKo/PpiCefvR+ei+2rVWnLnJFi8fPkFctpLw77nx7ltErh/fc1JHAjUPs699yzZ/PxCHUewfUPnk2teAI6o95yZP2DbIDyfIHJeQojc75ndt2Muco5IBp3n365GnX7mMfH5IUz7rX4752Tu24Uyi0g9QvFfFIz4x77/FH/9+rrdVwWs+OcV16WOb+5AuR1SLvnFf/kjcaI4tvx9gQlZVvznI4wP4g50+9QxJj1yGJfrUfgVOXMTqoE32a2sgHadU4tAL1m2UPzrFHE9aF/5hTpNj1SjFrNMRQlLOUTQceJMYN5Bd1x86lXuUOoFycUvGCciJAvFv87w8sZ72oHhc4ermEmyOEinpfPdq+SuGjx9GXg/m0df8tpAhDgKff6EEOIgtPwJIcRBnBP/dDpNq58Q4jy0/AkhxEEo/oQQ4iAUf0IIcRA3xV9mltrUwIsnSlzXnhBClgFuir9em94sryslBtkBEEJcw223j1dUpNTCJoQQUufQ5y/k1EolhJDlDcWfEEIchOJPCCEO4rz46wpPhBDiGM6L/+D0DNDQhgOhEoWEELKcodtHCpF39WJ2j8n7D9epJYSQ5QjFX0oh9h8BLnSpTqBOyyESQkiJOC/+phTiGAbqrCgKIYRUAi1/QghxEIo/IYQ4CMWfEEIchOJPCCEO4rb47z2Jzm3A/NgABu0uQghxATfF31vP/2gbYhMpHD5N6SeEuMXPtm7d+m95cvDgQQwODuLhw4f6hUpobGzE1NRUVQqlV/NchBBCDPT5E0KIg1D8CSHEQSj+hBDiIBR/QghxEIo/IYQ4CMWfEEIcxG3x18s5m3X863st/26cKXD/HScu6vd38cRSK1Nv7ru//4x6FoGej3ERJ/fa7arhXVc9zkZemZBlj7PirwVxP5DqMuv4d3WlgP312AF04GQyjsanw7i83GoR3DiFaxMxtB3N0zmUhW2viZT53I/12f2EuIWb4q8s/p72GSX8x5H96ffh+JU0GvdXU2hqT/fZHrQ1pJFKnMq7RIUuVamYmV5qM5nHMftU/e/prHoWTd+xXgw/bUQ8eVLJdhXYuwfNDfMYTlH0ids4KP7K8tvTiPmhyz7htyRHkMZGbKm6m6FG2LWJ0lf8ndhyYxCnLgxjvqENR6rhttq+BjH7lBCXcW95B/EjH12DawGr30NcAj1oHuv1rfcj/uE4Gu2WktrQiEGhz9nmExVlWZ47jFOh6mDiaupp90mPuB4i3A7h4+aH/PeTpftsP+Jrh9FbwOoviiLuX18L6n5TWwLHpq+ES1+aNmxrsJuKfPdfCvr62yLavlQkzrN/Y+TnQ4hLOGf5d/y6GbGJESMgOqDoD/gOYvKxPsygA8I+/7B+jKA1ECRUncP7wPnM611IaT91MFBpBB1KdLLH9T7ozIkxiMgZl5Q97tww0N4TEaztRmtVViQt7v412+Lo1x2nvf+heTTuDx7XfTZbD1k/rqQRi7z/0uj7Ma3+bUQrC+wTUhWcE//tG2KYfyAeZiV6yoKdUZarCOy8+m824Hg27qFc67wPx8PbIcu7LyXni6H511nBk+uGawUPnj4ctJqj3Dg3TuG8EtlY+wF1xz4SrUoK5zH2XWXSX+z9G2REkL23we/G9HFrttsdir5jIYs6eRnDT4FY857KfPbaJQds3FRZJ0IIMTgm/h3YstYGPrV4pjEi4qv9wDOY9IuWDgwqIf7RL/RFcmNSnS3I+IN5oKENPQUCl3pU4t2TDxOwDcYiOjZtVP+G7rlaRNy/pqxC96HRVNmY4HBsg6+nKQMW7CfE4Jj4b8eaBmPhGxEwWSZaSMMZJ7pDCI8GovHy6LMPf4zAIFa+uEB0B+AdF8ox16MD9ZfxwLnUY3/4bNWlmPsvmpArTR5xNZp53og7Te6l9Uc10qs0RkLIMsDBbB8fjye1CBjRzaJHBuOzOS6NKLzgrAQ+M37urpR2UeSQPJ45JjWhtsWH7usA9OhAB5T95/IetQlQlnT/C+EFjgMxEvtenzN9x8y9jLyqOoFqpY0SUse4Lf5+dEcgbiFr7VvXR+OrhbL+O7CnWXz5pU+wEjHSorh2S0aIotw7+Sjl2PyUf/9RGLdVrXLoZdQGG68pHx04bmjGnorajZD6x23xF+G1QVaN+Pnh+YP7cHlIWeLKOg9mqnTjTMZat/5sv5hot0fYbSLpj+HJYyZbxxt9aHRwtMgZrToAGhWULYVi7784TIfkvyd531Vy++gYzVKcqEZIfeKY+EvQ0LhydEaL+N8ldVGyfXQao5L+C1l/sOenl1TFrA+7FSO+bB8zA1UE276uUyHDbpNBnEqMoDVzDnnEsXGoN5RJJMfJiCDC75+zBk0fRtTIodIsmuLuv0iSx3X6Z7a9erBmoDpuHxOjWYZLWBDynHBukpcE/jofVD7paElgfeyowiSqJY19n5KWG5xQVgac5EWIxjm3j/h8c3Lm6xW98Jmy/tuP1GDly6VCB06+34ZYtax+HcgnhLjn89d+9dyFwrrP1mLp4NqTddvU14J0xVLMwnUloQP5qr3iy7G1CCkeBwO+4ldXgglfvr16xHGtTt0A8n7ER78Mlz7QwfjgrOLK6cNxiWlIjEc++5xYCiFu4N7CboQQQhxP9SSEEEeh+BNCiIM4J/7iRlqxYoXdIoQQN6HlTwghDkLxJ4QQB6H4E0KIg1D8CVlMmvchkTiEXevtNiHPCYo/IYtI09bNwP2/4Fbl02kIqQiKPyGLxfpdeO0lYOp/7todhDw/KP41YN3OQ0i8twvr7HYpNL2dKPtvyfOjmM983StbsApTGB+zO0qiCfsSCRzayW8GqQ7OLe9Q6+UiRLx3K+vu2Z0ULt1+ZPd+iG0fdQF/fgdTGy7h9Te8spH3MPrJ7/DUbmmUdXjo3RYtEjeTVxG2Ef1lF4PLG0vhlB60YRi9vkXQvOMzSInFQA2BErBLK2fPJiUnc9fdkWWz/QVc5v1LTusllRuD+yzm76LPWRj73hvspiJ8fn1uqPee2hJ4D7ntmHv/C7VZ9GceRsR7N1aGj3nxY/zqgx14+Pkh/Outr9DilQ19MoQf/vgH/GQ3Belg4jtWAfdvIvkNRw+kMmj5V4112PWeEYGpb5ORIrDpN1/h9aY7+OGTd3D7k08x8eQVtPz+Y7xgX9c8vIVLyZtK+jdjd0RgcPD0NV1oJae8pFQhkzKHYwNW+E0VrZ72GV9NYLugWTk1bH21AzL1ec/NojOwMFo3zsgieWtVB5Q5ZhiQ4i7ecXpV1agiNLay2cRIyYu4dZ89Alyw15OHLcATrMCm0AV7pFiNOU4KzzTuD67mKp2lLvLuncsr9BO5ANzCn3mG5u3qE32GyXtRx8Sw7QMl/OhX3wv5bvRjenU7Xv/th/Z1w6Pbl5D8dgp4aTdHh6RiKP5VQay6OFpWirWexNV8w/qANXcd0zfvAat3YPWLeoePu7iaTGF0bhVa3k1gX7PdrTEVvLCtNbCEs6mfm8a1jIV9QFnC4RUx+3BcCSMa2nCg1BVAt69R55/H2Hc+a/3GKRz2WcQdJzrRKKMB//LL6pjzuhxmpxXZQQyMqe1wHV1dprG8+r99x0KFWfJ2MMH2GPxuTO0JFumX6m2BkYCtmRBu76I/c8uCgd5xJfz//Znd+AxT36s22v46fIMZw9hVJL8cxbOVLYgn9qm7IKQ8KP6VIm4aNZzfPDeKVISbxs/c3euBYTz++RhzSnx+/gu7HeARbn2RxM37wOY3g75eXYQ8sISzLcTus5p12UPMYDK8TLWu/Qts3FSi7a+LoEjdgHx1D7xi8LMIl1gPi6y37a8/bMo0evWTK8XWJg5T5vnHH4TKv5TwmWuKCPROj3rCb/jpwT/Vv7/Az3MMA8UCo0NCioHiXyFNbeKfrz2rdrRnrTxr2WZcP9rlE2E1RwixR2yDz9wtBrHydW1fX73f/ogCMv6C9CEyHY5XgSxjmRuXT3qgzIIt4pKydRky9Rn8PvuSMK4r/7kCMRNFqZ+5DvSqjmKorEDvQqjRYRvtf1I6FP8KuftNEkmxwvQwvJpWWNCfnAxYmNZ1Yl0R2uVTolU7/yBft1AIKYRifeHiPlKjj3hUB5CHmemstOvRi+f60S6fNEbKKdPoBaElKOvdm3qUVzRehD+Oxqe+mIV6SGzAT2mfeRPad6zCs7//TY3lqoQ38tBJAepeGPwlZUDxrwqFfPT5eaF1B1biHh4P2x0ZPH/yM4x+Ge1PNoFfcf0Yd0s20GsIiKsf61sP+O7LIXncdgAbscXvy8/xjWfjEQFx16MX4/rRLp8yAr2COXd5sYIcdNsUOwIp8jMvGOjNT0PLK8CTO3jyD7vDQ2YISzZYsS4nQvJA8a8a+X30kbz4Mf7zjRjmvu/PTfXMWHWXCswENYHfxv2mxm0m0OthxbXtfX9mj7Js94vQll6yUrJgzoSCxOG4gtchxf2ZMcoyP9Ku5HnockjcTWchWTlxKdVYpngPTs+of/3xA5PlVJbbxxZ392dSSdpn2O2TZaHPXI3eXitjRm/bn3TK5/TN3FTPxJtyvptIfnGreiMJ4iQU/yojLoHUnWdY9fIvc1LxVr7x/2HnR1+ZxwftmP/zO/jr19ftqwbtTy7SqjOBX0Wk1RxVqziOjZKqWUaev2TBjLwa9IWblM5QNpG/Pq48jrZh5kpXTk6/YAK/ikoCvWoEIm4Z6UTMNXuwZqBMt4/ENWQ047v/zge9OW6fMHk/8/W/xJaVhQO9HpIGnPlu/OYXmPj8HUwERoTWfXQnRTcPqQqc5LUomElese8/zRH7irATpqImKtUFvrkDUZ1DvaMnZb08iVQhK11P8jKGQFDsCakttPzrGJMeOYzL9Sj8ipy5CcuKGgR6CakiFP86RXzw2ld+ocz0yOeNGrWYZSpKXcqhXpCA8AKzfgl5jlD86wwJQIovuqcdGD4XmtlaB0inpf3p9eyuImQZQJ8/IYQ4CC1/QghxEIo/IYQ4iHPin06n6fIhhDgPLX9CCHEQij8hhDgIxZ8QQhzETfH3rf+eU+qPEEIcwE3x14VJujL1ZdkBEEJcw223j1dRqtSqVoQQUufQ5y+s3eJb854QQpY/FH9CCHEQij8hhDiI8+I//qBwlSZCCFmOOC/+ugZsQxsOhOrTEkLIcoZun+RxdHX1YnaPyfsPFyknhJDlCMVf6uD2HwEudKlOgMVFCCFu4Lz4mzq4Yxios4pYhBBSCbT8CSHEQSj+hBDiIBR/QghxEIo/IYQ4iNviv/ckOrcB82MDGLS7CCHEBdwUf289/6NtiE2kcPg0pZ8Q4hY/27p167/lycGDBzE4OIiHDx/qFyqhsbERU1NTVSmUXs1zEUIIMdDnTwghDkLxJ4QQB6H4E0KIg1D8CSHEQSj+hBDiIG5n+8iKnvsb7QaQvrLQqp4dOJnsQdvjFLqO9dl9pdN9th/xbXZDmKjsfPkIX2fh91ddOk5cRE97TD2bx/C5wzjFxfMIWTI4a/mLMPXvB1JdZinnrq4UsL/26/kbQRYx9K6rHjUQfqHvmD3/uWElv4Xoxpn+flw8UcUy9qpj7WmHfZ8UfkKWGm6KvxamGSX8x5GV3T4cv5JG4/4zSgprRTdaxRKfuLbsxVAvle3A+ySkXnFQ/Dtwck8j5ocu+4TfkhxBGhuxZa/drhHzD8bts+VKB7astU8JIUsS98R/7x40N6RxLXJJh3HMPo2h+ddZ94e4aaS8o3n0oK3BvhBAYgH+4y7iZNkdSPhcue4YfU/Jk+pIH3bJilLcVtr1pa8Rh0Q+Yu09Ba9LCFk+OCf+Hb9uRmxixFj93ho/9nEmMYjJx/owhRHh+Nph9GbiAr0YfmpfziD+chsEtsf1DgFtR70OwC/mUSIb7Ci6z2ZLSurHlbQ+vhZCPHj6sL1OSo141IhkqDd7XfXgmkeELF+cE//tG2LW7aJE+2gbZq4oodMB0XnM+r0xiQPKyp/H8IVTBVf87DjRqQQ9jZQvaDt4+rzqJGJoi0v0YBCnEp6gRolsMBjadywUHE1e1h1OrHlP0NInhJAKcEz8jS96ZlrJeaJVi/aIpD5uX4MYZjDpE93iavt2YE9zDPBGEhnsCGLtlioItn80Uido1xqQ/jEnqkIIWSI4Jv7bsUZZ82LhG3GfhRj7HZs2Zp6XhpxP/W9b3OfGMY9AHn8phFxRFZ1rsfHu/X3gvBrVLOacAkJIabgX8PXzeFK7dMQV5EePDIpCAsTqfzJJK+PG8T0ShV1GOYh42hoD/vOkJuzrS50bp3BY7vkCcER1ArWeM0EIKR+3xd+P7gjELWRGBuMP5oGGNcq296HjAPa5ppruHTUCkWC0zIZNle4uMX9bLqYTi20IvNvyuTGAMXW+xldrN2OCEFIZbou/iLaytqWUo0Z81TB+/sHvxpQMN6LTy7IRq3z/RsyHsn36UsOYb2hDz9nKhW5wekb96081tRlHIbeP6ZiascdmCWWXUSgX24lt66wgRZUQUk84Jv4mj3+NMnAzon10Da5Jto/47Y8q6feye8SFYdMste9djus6jGvh4Kt2daSQjvD7l+z2SB5H79C8LxW0B2sGct0+kqKZmoih7ai5Tk/zGHptJlEWs2SDPo+4ktSexv12uz93FnPfMUljzZ5THszzJ2T54tzCbjJBqvNBL3PYa4qMWCpfAI8QUjucc/v0/SjW/IEcy5dUkzpMTyXEMdzz+etJU42Ih5ZH6D5byZIMJIyOSzCGQMiSxcGAr8y47cUw2tDj+cTVIw6uQFlNJC5hlrmQ9mXHSshSw+1iLoQQ4ihup3oSQoijUPwJIcRBnBN/cSOtWLHCbhFCiJvQ8ieEEAeh+BNCiINQ/AkhxEEo/oQsOWzpz6jFAjP1HnLXZ1oUmvchkTiEXevtNqlbKP6EkKJp2roZuP8X3Kp8OhB5zlD8CaknvII5XcdDpUMXgfW78NpLwNT/3LU7SD1D8a8B63YeQuK9XVhnt0uh6e1E2X9LSNkoYT+0gDtn3StbsApTGB+zO0qiCfsSCRzayW/2UsG55R1qvVyEiPduZR09u5PCpduP7N4Pse2jLuDP72BqwyW8/oZXeOUeRj/5HQL1YeRH+G6L/pHdTF5F2MbyCrekr4Rr5NpllDGMXl/5yJxCL1IisoxllmUp7DjU36a2mFKTdn/ufdhjfQVo5ofKX0K72PsvdM1S22wh9PmkhkJiEgf642i0+yPfZ+IM+vd7RwhppCKs9vD9a/zv1SvxabaApwXuOXzNhT5z8eO/uRmYG0Xqi1vwvrVBRLx3Y2Xgey0U/90Woyi+YxVw/yaS33D08Lyh5V811mHXe0b4p75Nhn4ghk2/+QqvN93BD5+8g9uffIqJJ6+g5fcf4wX7uubhLVxK3lTSvxm7IyyxwdPXdNGWnBKJUoWsQQnQ2IAVBBM07GmfUWLj1QO2RWdCK5oWjS54I0VtzPmk8Ezjfv+ibaaATHytEibvmueGASlOU0alMyPawPA57/7VNR90horkLHzN4tusBKQQUH8nZr17s4V/Avcmgv3qSObeu7qkYE4j4oFgrfmcAvevj7Mve2TcPYVrOkub9e/f6Gsz+5nnaX89ShXhF0HOK/yK5u3qG/kMk/eijyjmu/3o9iUkv50CXtrN0e0SgOJfFcQqiqNlpVjrSVzNNyx+MoQf/vgH/KQ3rmP65j1g9Q6sflHv8HEXV5MpjM6tQsu7Cexrtrs1fRiRH/+21kC2h6nhm8Y1z/LU9YbnlQj4rcw+HFciJcJ1oKzi6sHzmVKXpjKa0HGiU1nByrL1W6RKtM6rTqKc5Z11Yf2npqymh6wW6rfei7tmkW1WIukrh7MrwSZHdAezcZOvWxXBDljcgzg1oLshtHrt731OXgW5iujGATXCmR8671uh1n7mEe0vo1SxxMVYWcgSXzDQW+x3e+wqkl+O4tnKFsQT+9QvhzwvKP6Von2lu7FZhswRbho/c3ev2x+H5Z+PMafk5+e/sNsBHuHWF0ncvA9sfjPoK5WCNAEBUdbjnmYllBMjGWHuflWG/TOYDC9THSVSxRIS4iD2Hp7OYtzu8Qh3EsViahUrCzvvSKX4axbTZqWRxkjI3VUU47PqvrLoz6lgu5ZAolW9w3mMfRfqRvQ1/e3vjVKfYfTLAsaKRxGB3pK+2wuMbsniQPGvkKY28c/XnlU72rNWki5I43NjaPeFsh5TIRmLEEWP2IYSlbhYHk/mtWBL7XDEyhd3inGx2NoLUe6LYq5ZbJtVGfHlezUj9MPvt68yHZs2qn+DdZgjr9ncrkap9nkR6ECvMm6Gygr0LoQa3bbR/n8eUPwr5O43asgsVowexlbTignGEJKBUcUgBsbErWHcGNp9UaL1OP8gX7dQO2amy3BsJI9b37X1dRfwX0eRvWblbVYqJogrrjLP/64e54YDln81GZyeUf+Grud7ZNxl4npJyqjSuBULZ+A0oX3HKjz7+9/yxwNKxRst66SGhV1OpDZQ/KtCIR99fl5o3YGVuIfHw3ZHBi+GkH9YboKY4sYw7otw0FK7ORqasSfsZ8/nGqiYoLj68XzrZblJfPQdsx3A2i3WDVTaNRdqs+rSjVbJ3pkoXCHOuLbWIDAO03EA+7wUctw7hRHDJXXnmRpVxpF4O4/1vUCgNx95v9uSWSTZbEW4SUltofhXjfw++khe/Bj/+UYMc9/356Z6ZqyiSwVmUpogZuP+HiUUEUFL7eaIoe19v7+8G2ckBXABQSoXT1zjfst870kc0UHIyyX61iULJryEgRVUn5untGsu0GZVZRyz8sH6OyZJwQy5YExsohGdJ+ynJBlC+zdiPpztUww3TuGafn/Fl80snIGjRp+vlTGjN893u+jMIrIoMM+/Buh85pcnfTnTJhd6k36eZfrP72AiZBnpeQL/USjf2oeXz503j9vmsfusyHJz7rULQ9IR/Vk1Nvd8JpA/L6mX2dx3IWouQHHkniv6/ku45oJttjAmBVVSaP2ZVOYeNgbuL3Rfkpt/ATgSbrNAXr6ZBwBpb5lXYe/Rm6sQRbhNIo8tNC9A0PNLtmDyS5/Bofe1YO7bQkHhYr/b+eYJkOcFxX9RMD+Q2Pef4q9fX7f7qoAVjfLF1UHYZkWTa8REUaPvNqk5dPvUMSZNcBiXKWJFwzYrlhoEesmSguJfp8jQXmeSVGVykBuwzUpBkhiiZ6qT5QHFv87w8sbNsge+GaYkL2wzQnKhz58QQhyElj8hhDgIxZ8QQhzEOfFPp9N0+RBCnIeWPyGEOAjFnxBCHITiTwghDuKm+MuaNHat84veglqEEOIQboq/Vw/V1nplB0AIcQ233T52CdyaVbUihJAlCn3+QqY4CCGEuAHFnxBCHITiTwghDuK8+OsaqoQQ4hjOi//g9AzQ0IYDCbuDEEIcgG6f5HF0dfVido/J+z/DToAQ4gAUf6np2n8EuNClOgHWdSWEuIHz4m9quo5hgNWdCCEOQcufEEIchOJPCCEOQvEnhBAHofgTQoiDuC3+e0+icxswPzaAQbuLEEJcwE3x99bzP9qG2EQKh09T+gkhbvGzrVu3/lueHDx4EIODg3j48KF+oRIaGxsxNTVVlULp1TwXIYQQA33+hBDiIBR/QghxkCUv/ul0mi4fQgipMrT8CSHEQSj+hBDiIBR/QghxkLoR/44TF/V6+/39F3Fyr91JCCGkLOpG/AdPH9br7fcOAW1H2QEQQkgl1J3bZ/D0NaQRw5rtdgchhJCSqVuf/8ZNHfYZIYSQUmHAlxBCHITiTwghDlKH4j+O2af2KSGEkLKoQ/EfxORjINZ+AN12DyGEkNKoS7dP37EudJ2bRafO+z/DToAQQkqkLsW/+6wS/feB812qE+g6jj67nxBCSHHUofh3o5WlFwkhpCLq0vInhBBSGRR/QghxEIo/IYQ4CMWfEEIcpO7Ev+NEJxoxj7HvGO4lhJByqRvx99bz72mPIX3lME7dsC8QQggpmZ9t3br13/Lk4MGDGBwcxMOHD/ULldDY2IipqSkWXieEkCUKff6EEOIgNRH/dDpNq58QQpYwtPwJIcRBKP6EEOIgFH9CCHGQpSn+zfuQSBzCrvV2Ow8Nv/0KO3//MV6w2xle/Bi/+ki99tGf0GB3EUIIybIkxb9p62bg/l9wq/KsU0IIIREsPfFfvwuvvQRM/c9du6MM/vEH/PWTd3D7k9+BFR8JISSXxRV/JeyHFnDnrHtlC1ZhCuNjdsdzZN3OQ0gk9qHJbhNCyHJh8cRf/PjvtmDV3CT+lted04T2Havw7M4Qouz+F/7rEnZqX755tGy3L3hkfP32ERUPaPuTfm1bm932oWMIvjjBo9t/Ud3QZuwuIv5ACCH1xKKIv7ag3xQ//k0kv7iFR3Z/Ds3bldQ+w+S93CNEmF9/458Y1e4c8xgdty96ZNw9Ea95DP+AafW/TS0fmu0MH2Kt6kzmvu/3uYru4moyhdG5VWh5N4F9zXY3IYTUOTUX/6a3E4gra37q2ySS3xT24+cN9CqL/v8qYZ7+czV8+J/hsXQM218PZgK1vY5NmMfDket2h8cj3PoiiZv3gc1vJnBo5zq7nxBC6pcaiv867Hovgd0vPcPol0lcXciHXyDQ+0LrDqzEPTwetjsq5On1IczhFaz1uX4aWl4BntzBk3/YHSHufpNE6s4zrNoRR+JtRgEIIfVN7cS/uR0tK+3zItCB3rlRDC1GoPcf1/Hwid/1Y1w+0zf/gJ/snoK89BpjAISQuqZ24j92FcmkuEuMv7ywu8QGev/+t/zxgKpyHU/uzmddP9rlU3hk4bmvnt1Jqfd1iXMQCCF1Tc19/kW5SwoEeoWfHvxT/fsL/PxFs62xcYBy+enrq5i2rh/t8hn/IU88wXNfQcctLt1enO6JEEJqSc3FX3h0+xKS304BL+1G4r1dSk79KHF9bYEZvTpDJ4Ztb2XdNNs+aAeeKOu9bEzgd1PLn7B2+zwmrn9m9/tpwr5EHC0ri4xbEEJInbAo4q8RN9CXo3i2cgt+6feXr/8ltqxcaEbvZ5j4fAhz27tsDv8+/Ovzd/D/Qn/inweg5wCsbsfrdvtX//WWOcjH09F7wPZXsClPoHfdztfUiGQKN+nmIYQsM2pSxrEUZA5A/OVJpArl/xNCCKkqi2f5R7LYgV5CCCHCcxZ/mUHLICohhCw2z1n8CSGEPA8o/oQQ4iAUf0IIcRCKPyGEOAjFnxBCHITiTwghDkLxJ4QQB6H4E0KIg1D8CSHEQSj+hBDiIBR/QghxEIo/IYQ4CMWfEEIchOJPCCEOQvEnhBAHofgTQoiDUPwJIcRBKP6EEOIgFH9CCHEQij8hhDgIxZ8QQhyE4k8IIc4B/P/cnaAHD4kpLwAAAABJRU5ErkJggg==;" parent="1" vertex="1">
                    <mxGeometry x="-975" y="3700" width="383" height="416" as="geometry"/>
                </mxCell>
                <mxCell id="102" style="edgeStyle=orthogonalEdgeStyle;html=1;" parent="1" source="100" target="99" edge="1">
                    <mxGeometry relative="1" as="geometry"/>
                </mxCell>
                <mxCell id="100" value="Sintaxis nueva de switch en angular 17, se debe de acompaÃ±ar el switch anteponiendole un @ al igual que con los case y default" style="rounded=1;whiteSpace=wrap;html=1;fontSize=31;fillColor=none;strokeColor=#33FF33;strokeWidth=5;" parent="1" vertex="1">
                    <mxGeometry x="-483" y="3793" width="545" height="308" as="geometry"/>
                </mxCell>
            </root>
        </mxGraphModel>
    </diagram>
</mxfile>